<svg width="184" height="184" viewBox="0 0 184 184" fill="none" xmlns="http://www.w3.org/2000/svg">
<path d="M139.939 77.5217C139.554 77.5217 139.554 78.2366 139.939 78.2366C140.855 78.2366 153.623 78.0258 154.695 77.815C154.793 77.8003 154.882 77.7511 154.947 77.6762C155.011 77.6014 155.046 77.5059 155.046 77.4071C155.046 77.3083 155.011 77.2129 154.947 77.138C154.882 77.0632 154.793 77.0139 154.695 76.9992C151.332 76.5593 143.642 77.4484 139.939 77.5217ZM145.053 96.2376C144.632 96.2376 144.705 96.9434 145.108 96.9617C148.096 97.0625 152.752 96.9067 155.804 96.7692C156.363 96.7692 156.428 95.8527 155.804 95.8527C152.386 95.871 148.481 95.9168 145.053 96.2376ZM145.447 64.6258C145.358 64.6297 145.274 64.6656 145.21 64.7271C145.146 64.7885 145.106 64.8712 145.098 64.9597C145.09 65.0483 145.115 65.1367 145.167 65.2085C145.22 65.2802 145.296 65.3305 145.383 65.3499C147.024 65.5515 152.349 65.7623 153.953 65.0841C154.035 65.0434 154.102 64.9771 154.143 64.8952C154.184 64.8133 154.197 64.7202 154.18 64.6301C154.164 64.54 154.118 64.4577 154.051 64.3958C153.983 64.3338 153.897 64.2955 153.806 64.2867C151.68 64.1584 148.27 64.8366 145.447 64.6258ZM134.98 82.3336C142.716 82.2236 151.478 81.6828 159.287 80.9679C159.773 80.9679 159.727 80.0514 159.223 80.0514C151.542 80.2438 142.569 80.7479 134.934 81.5362C134.829 81.5422 134.73 81.5901 134.659 81.6691C134.589 81.7482 134.553 81.852 134.559 81.9578C134.565 82.0635 134.613 82.1625 134.692 82.233C134.771 82.3035 134.875 82.3396 134.98 82.3336ZM146.071 41.5104C148.224 41.3455 150.378 41.2171 152.486 40.9605C153.091 40.8963 152.936 40.044 152.34 40.044C150.195 40.2089 148.05 40.4839 145.924 40.7314C145.429 40.7864 145.566 41.5471 146.071 41.5104ZM133.495 60.6297C133.037 60.6297 133.019 61.4087 133.495 61.4454C138.677 61.6867 143.869 61.3238 148.967 60.3639C149.544 60.263 149.453 59.3465 148.866 59.4473C143.79 60.313 138.644 60.7088 133.495 60.6297ZM150.552 45.9007C151.35 46.0932 151.469 44.7917 150.736 44.92C147.159 45.5 143.533 45.7241 139.911 45.5891C139.426 45.5891 139.316 46.2948 139.811 46.3498C143.394 46.7096 147.011 46.5584 150.552 45.9007ZM130.7 81.9028C129.985 81.6278 126.686 82.0861 125.76 82.1869C125.311 82.1869 125.292 82.911 125.76 82.9018L129.509 82.7827C131.241 82.7185 131.232 82.1136 130.7 81.9028ZM134.485 121.562C133.715 121.379 128.244 121.791 127.345 121.846C126.869 121.846 126.96 122.579 127.437 122.57C128.409 122.57 133.734 122.57 134.577 122.304C134.953 122.176 134.824 121.635 134.485 121.562ZM127.336 117.685C129.912 117.804 136.291 117.914 138.866 117.3C138.927 117.299 138.986 117.286 139.041 117.262C139.096 117.237 139.145 117.201 139.185 117.156C139.225 117.111 139.255 117.058 139.273 117.001C139.292 116.943 139.298 116.883 139.291 116.823C139.285 116.763 139.266 116.705 139.236 116.653C139.206 116.601 139.165 116.556 139.116 116.521C139.068 116.485 139.012 116.461 138.953 116.448C138.895 116.435 138.834 116.435 138.775 116.448C135.008 116.448 131.516 117.08 127.446 116.915C126.96 116.897 126.832 117.657 127.336 117.685ZM136.227 101.389C136.777 101.288 136.731 100.472 136.153 100.472C132.084 100.885 131.232 100.985 127.061 101.15C126.658 101.15 126.612 101.847 127.061 101.874C130.125 102.078 133.202 101.915 136.227 101.389ZM141.873 95.6235C136.887 95.8069 131.708 96.6501 126.502 96.8334C126.409 96.8477 126.324 96.8949 126.263 96.9663C126.202 97.0378 126.168 97.1288 126.168 97.2229C126.168 97.3171 126.202 97.4081 126.263 97.4795C126.324 97.551 126.409 97.5981 126.502 97.6125C130.819 97.6125 137.767 97.4108 141.974 96.4759C142.061 96.4371 142.134 96.3711 142.182 96.2877C142.229 96.2043 142.249 96.1079 142.238 96.0125C142.226 95.9172 142.185 95.828 142.119 95.758C142.054 95.688 141.967 95.6409 141.873 95.6235ZM158.856 119.316C158.783 119.316 153.751 119.729 152.89 119.701C152.808 119.716 152.733 119.757 152.677 119.817C152.62 119.878 152.584 119.955 152.575 120.037C152.566 120.12 152.583 120.203 152.625 120.274C152.667 120.346 152.731 120.402 152.807 120.435C153.834 120.627 158.16 120.7 159.049 119.949C159.094 119.899 159.125 119.839 159.139 119.774C159.154 119.709 159.152 119.642 159.132 119.578C159.113 119.514 159.077 119.457 159.029 119.411C158.981 119.365 158.921 119.332 158.856 119.316ZM160.479 99.3264C154.127 99.7389 147.033 99.9772 140.709 100.518C140.214 100.518 140.305 101.26 140.782 101.288C144.201 101.389 156.363 100.765 160.561 100.234C160.621 100.229 160.679 100.213 160.733 100.185C160.786 100.158 160.834 100.12 160.872 100.073C160.911 100.027 160.939 99.974 160.957 99.9165C160.974 99.859 160.98 99.7986 160.974 99.7389C160.962 99.6188 160.904 99.5082 160.811 99.431C160.718 99.3538 160.599 99.3162 160.479 99.3264ZM136.621 78.4841C136.742 78.4841 136.859 78.4358 136.945 78.3498C137.031 78.2639 137.079 78.1473 137.079 78.0258C137.079 77.9042 137.031 77.7877 136.945 77.7017C136.859 77.6158 136.742 77.5675 136.621 77.5675C132.671 77.6683 128.684 77.6958 124.706 77.9983C124.62 78.0173 124.544 78.0649 124.489 78.1332C124.434 78.2015 124.404 78.2865 124.404 78.3741C124.404 78.4617 124.434 78.5466 124.489 78.615C124.544 78.6833 124.62 78.7309 124.706 78.7499C128.702 78.8232 132.671 78.6124 136.621 78.4841ZM152.248 115.485C150.855 115.485 145.832 115.843 144.641 116.053C144.256 116.118 144.201 116.75 144.641 116.768C145.933 116.833 150.928 116.512 152.376 116.383C152.936 116.402 152.816 115.485 152.248 115.485ZM149.572 120.627L138.051 121.36C137.528 121.36 137.657 122.158 138.17 122.13C140.406 122.029 147.601 121.745 149.618 121.47C150.067 121.415 150.076 120.627 149.572 120.627ZM141.323 40.9605C137.941 40.5755 127.327 41.2171 123.725 41.5838C123.23 41.6296 123.193 42.3995 123.725 42.3537C129.646 41.9687 135.411 41.8404 141.332 41.8587C141.435 41.8366 141.528 41.7795 141.594 41.697C141.66 41.6144 141.696 41.5116 141.695 41.4059C141.694 41.3001 141.656 41.198 141.588 41.1169C141.52 41.0357 141.427 40.9805 141.323 40.9605ZM142.304 65.6982C142.881 65.6157 142.67 64.7816 142.093 64.7816C136.193 65.4537 130.258 65.7598 124.321 65.6982C124.235 65.7119 124.156 65.7559 124.1 65.8223C124.043 65.8886 124.012 65.973 124.012 66.0602C124.012 66.1474 124.043 66.2318 124.1 66.2982C124.156 66.3645 124.235 66.4085 124.321 66.4223C130.325 66.7114 136.342 66.4691 142.304 65.6982ZM136.08 46.5056C136.14 46.4999 136.199 46.4823 136.252 46.4538C136.306 46.4253 136.353 46.3865 136.392 46.3396C136.43 46.2927 136.459 46.2387 136.476 46.1807C136.493 46.1227 136.499 46.0618 136.493 46.0015C136.487 45.9412 136.469 45.8827 136.441 45.8292C136.412 45.7758 136.373 45.7285 136.327 45.6902C136.28 45.6518 136.226 45.6231 136.168 45.6058C136.11 45.5884 136.049 45.5828 135.989 45.5891C131.947 46.0932 128.115 46.1115 124.128 46.4598C123.707 46.5056 123.661 47.193 124.128 47.2114C128.124 47.276 132.12 47.0401 136.08 46.5056ZM124.724 61.0146C124.266 61.0146 124.257 61.7387 124.779 61.757C126.424 61.9119 128.078 61.9548 129.728 61.8853C129.803 61.8521 129.866 61.7981 129.91 61.7298C129.955 61.6615 129.978 61.5818 129.978 61.5004C129.978 61.419 129.955 61.3393 129.91 61.271C129.866 61.2027 129.803 61.1486 129.728 61.1154C129.563 61.0238 125.567 61.0146 124.724 61.0146ZM113.286 66.2939C113.817 66.2939 115.788 63.031 116.897 61.9128C117.3 61.5096 116.64 60.8313 116.228 61.2163C115.058 62.2704 114.046 63.4865 113.221 64.8275L110.903 62.6919C110.426 62.252 109.812 63.0035 110.252 63.4526C110.692 63.9018 112.607 66.2939 113.286 66.2939ZM107.016 51.3267C110.774 51.5467 114.679 51.4733 118.803 51.5008C119.096 51.5008 119.271 50.6851 118.803 40.9513C118.803 40.2456 118.739 39.7232 118.73 39.5307C118.732 39.5023 118.729 39.4737 118.719 39.4469C118.71 39.42 118.695 39.3955 118.675 39.3749C118.409 39.0907 116.677 39.1091 112.781 39.2099C106.228 39.3657 105.504 39.3199 105.504 39.6957C105.477 39.769 105.889 51.2167 107.016 51.3267ZM107.273 50.6484C106.815 48.2012 106.485 43.0319 106.201 40.1356C108.868 40.2914 114.945 39.989 118.006 39.9156C118.006 39.9156 118.171 48.0638 118.244 50.6943C114.651 50.6118 110.903 50.4743 107.236 50.6026L107.273 50.6484Z" fill="white" style="fill:white;fill-opacity:1;"/>
<path d="M120.068 68.6861C120.838 68.3836 119.94 59.8414 119.811 57.5958C119.805 57.5496 119.782 57.5073 119.747 57.4767C119.197 57 107.566 57.6325 106.98 57.6783C106.393 57.7241 106.98 60.9137 107.081 63.0859C107.291 68.4936 107.539 68.961 107.814 68.9977C109.812 69.2818 118.235 69.401 120.068 68.6861ZM107.539 58.4299C111.507 58.1732 115.531 58.1549 119.106 58.1366C119.197 60.2813 119.344 66.3214 119.527 67.9528C115.792 68.3392 112.033 68.4464 108.281 68.2736C108.437 66.9079 107.676 59.9788 107.539 58.4299ZM115 81.5728L117.126 79.648C117.188 79.5432 117.215 79.4215 117.204 79.3003C117.193 79.1791 117.143 79.0646 117.063 78.9731C116.983 78.8816 116.875 78.8178 116.757 78.7909C116.638 78.7639 116.514 78.7752 116.402 78.8231C115.531 79.3594 114.741 80.0167 114.055 80.7753L112.149 79.0156C112.046 78.9196 111.909 78.8685 111.768 78.8737C111.627 78.8788 111.494 78.9398 111.397 79.0431C111.301 79.1464 111.25 79.2836 111.256 79.4246C111.261 79.5655 111.322 79.6986 111.425 79.7946L113.258 81.6277C111.608 83.3692 110.884 84.4599 111.049 84.9548C111.214 85.4498 111.81 85.2298 111.966 85.0098C112.607 84.2216 113.331 83.3234 114.11 82.4893C114.883 83.3325 115.74 84.0942 116.668 84.7623C116.763 84.7872 116.864 84.7857 116.959 84.7581C117.054 84.7306 117.14 84.6779 117.207 84.6056C117.275 84.5334 117.322 84.4442 117.343 84.3476C117.364 84.251 117.359 84.1505 117.328 84.0566C116.638 83.152 115.858 82.3198 115 81.5728ZM115.485 42.2803C114.021 43.5606 112.825 45.1182 111.966 46.863C111.275 46.0365 110.48 45.3032 109.601 44.6816C109.06 44.3058 108.364 45.0207 108.895 45.424C109.941 46.3481 110.918 47.3467 111.819 48.412C112.057 48.6594 112.287 48.5311 112.488 48.2653C113.486 46.3207 114.717 44.5048 116.154 42.8577C116.594 42.3719 115.962 41.8311 115.485 42.2803ZM115.192 102.122C115.669 101.792 117.483 98.2906 118.537 97.0991C118.95 96.6408 118.235 96.0084 117.768 96.4942C116.513 97.7869 115.437 99.2418 114.569 100.82L112.433 98.9872C111.966 98.5931 111.342 99.2988 111.828 99.7663C112.314 100.234 114.404 102.8 115.192 102.122ZM122.185 113.872C121.837 113.185 109.299 113.872 109.179 113.872C109.152 113.875 109.126 113.885 109.104 113.901C109.081 113.917 109.063 113.939 109.051 113.964C108.63 114.642 109.051 125.668 109.354 126.694C109.711 127.941 121.864 126.905 122.469 126.96C122.488 126.964 122.507 126.964 122.525 126.96C122.543 126.956 122.56 126.948 122.575 126.937C122.59 126.926 122.602 126.911 122.611 126.895C122.619 126.878 122.624 126.86 122.625 126.841C122.818 125.439 122.231 113.964 122.185 113.872ZM109.766 114.541C113.432 114.697 117.768 114.468 121.489 114.459C121.544 115.989 121.874 124.971 121.919 126.181C117.85 126.365 114.431 126.3 110.096 126.181C110.142 124.651 109.821 115.934 109.766 114.569V114.541Z" fill="white" style="fill:white;fill-opacity:1;"/>
<path d="M114.193 120.481C114.844 120.481 118.171 120.71 118.437 120.563C118.507 120.523 118.567 120.468 118.612 120.401C118.657 120.334 118.686 120.258 118.696 120.178C118.707 120.098 118.699 120.017 118.673 119.941C118.647 119.864 118.604 119.795 118.547 119.738C118.061 119.225 114.99 119.335 114.477 119.436C113.781 119.564 113.652 119.83 113.671 120.032C113.695 120.154 113.76 120.265 113.854 120.346C113.949 120.428 114.068 120.475 114.193 120.481ZM115.43 93.58C112.424 93.635 109.262 93.745 108.739 93.7816C108.538 93.7816 108.327 93.9558 108.3 95.8622C108.3 98.1444 108.694 105.376 109.61 105.44C111.443 105.578 120.92 105.614 122.139 105.523C122.332 105.523 122.488 105.523 122.139 100.757C121.947 98.3002 121.516 93.8366 121.516 93.8366C121.48 93.6533 121.461 93.4883 115.43 93.58ZM120.829 94.3866C121.049 97.8053 121.168 101.307 121.535 104.744H109.876C109.519 101.435 109.28 98.0253 109.024 94.524L120.829 94.3866ZM110.903 88.4198C114.624 88.4198 120.847 87.9157 120.902 87.8882C121.489 87.5858 120.902 79.3093 120.71 75.7714C120.71 75.139 117.474 75.1298 114.789 75.2307C113.616 75.2307 107.786 75.5423 107.805 76.3763C108.116 88.649 108.043 88.0532 108.272 88.1815C109.13 88.4053 110.019 88.4858 110.903 88.4198ZM108.969 87.5033C108.758 83.8921 108.684 80.0609 108.538 76.5047C112.344 76.1666 116.165 76.0381 119.986 76.1197C119.986 77.3754 120.233 85.7252 120.389 87.1183C119.032 87.21 110.389 87.2741 108.996 87.5124L108.969 87.5033Z" fill="white" style="fill:white;fill-opacity:1;"/>
<path d="M177.811 101.985C175.409 36.662 176.418 37.2119 175.978 36.827C175.354 36.2404 170.542 36.6253 169.36 36.6895L168.865 26.6716C168.889 26.6112 168.897 26.546 168.89 26.4815C168.883 26.417 168.861 26.3551 168.825 26.3012C168.789 26.2472 168.741 26.2027 168.684 26.1715C168.627 26.1402 168.563 26.1231 168.499 26.1217C149.251 25.8834 129.444 27.1574 109.583 28.5047C104.23 28.8805 98.6666 29.2105 93.2223 29.7879C93.1714 29.7797 93.1193 29.7829 93.0698 29.7973C93.0203 29.8117 92.9746 29.8369 92.936 29.8711C92.8974 29.9053 92.8669 29.9477 92.8467 29.9951C92.8264 30.0425 92.817 30.0938 92.819 30.1453C93.8272 54.6172 96.7602 94.1755 101.829 137.977C101.884 138.482 106.063 138.042 109.821 137.794C109.87 138.872 110.064 139.939 110.398 140.965C110.948 141.662 178.938 137.446 178.856 134.55C178.562 123.67 178.168 112.653 177.811 101.985ZM172.66 130.563C148.554 134.229 126.878 135.255 102.672 137.345C97.8784 95.8162 95.9078 67.3298 93.5064 30.4295C100.949 29.9895 128.473 27.4598 168.233 26.9374C169.223 53.5815 172.907 127.63 172.632 130.563H172.66ZM57.6052 67.5497C56.9819 67.5497 56.9911 68.7596 57.2844 69.2179C57.3182 69.285 57.371 69.3407 57.4361 69.3781C57.5013 69.4156 57.576 69.4332 57.651 69.4287C58.2101 69.3645 58.1826 67.6139 57.6052 67.5497ZM54.3331 72.8474C54.7272 72.9482 55.7904 73.0124 56.0379 72.6458C56.3861 72.1325 55.4421 67.4764 55.3229 67.1465C55.2984 67.0791 55.2508 67.0227 55.1885 66.9872C55.1263 66.9517 55.0534 66.9395 54.983 66.9527C54.9126 66.9659 54.8491 67.0037 54.8039 67.0593C54.7588 67.1149 54.7348 67.1848 54.7364 67.2564C54.7364 68.0905 55.1121 70.9226 55.2588 72.105L54.3422 72.16C54.2752 72.1885 54.218 72.2359 54.1774 72.2964C54.1368 72.3569 54.1147 72.4279 54.1137 72.5007C54.1128 72.5735 54.133 72.6451 54.1719 72.7066C54.2109 72.7682 54.2668 72.8171 54.3331 72.8474ZM56.8261 65.8358C57.0974 65.7615 57.3827 65.7544 57.6574 65.8151C57.932 65.8757 58.1878 66.0024 58.4026 66.1841C58.76 66.5049 59.4474 65.8908 58.4667 65.2675C57.761 64.7909 56.1112 64.626 56.2853 65.4692C56.3137 65.5866 56.3849 65.6892 56.4849 65.757C56.5848 65.8248 56.7065 65.8529 56.8261 65.8358Z" fill="white" style="fill:white;fill-opacity:1;"/>
<path d="M83.6993 99.1522C77.8059 93.3412 67.2014 86.5129 57.6693 85.1564C57.8272 84.6116 57.8272 84.0332 57.6693 83.4883C58.3949 82.8818 59.0693 82.2166 59.6857 81.4994C60.9964 79.9596 60.9689 78.4565 59.0991 79.2172C60.9322 75.1661 60.9322 66.3855 60.2723 61.4545C63.3428 63.3701 68.5213 61.5278 67.8889 57.7883C72.0592 59.0439 74.7721 50.7583 69.4745 49.2643C70.2169 42.9951 62.1879 42.0878 59.7316 45.7448C58.3476 41.7028 51.9867 43.8292 52.445 47.0005C49.5762 43.9209 43.3803 44.9932 42.5187 48.8336C39.9249 46.478 35.6446 47.4771 36.0204 50.9508C31.9143 49.0444 29.742 53.9571 32.9316 55.5336C30.8877 56.6334 30.9519 61.1612 34.0865 61.1612C34.0865 64.1858 35.9196 71.1149 40.4565 74.9094C40.9423 79.153 40.0716 81.3253 38.5593 85.2573C23.6012 87.5303 12.2451 99.198 7.14908 113.67C1.33816 130.168 4.09697 145.75 21.3189 149.031C21.2831 151.233 21.0252 153.425 20.549 155.575C20.5405 155.656 20.5614 155.738 20.608 155.805C20.6547 155.871 20.7239 155.919 20.8029 155.939C20.882 155.959 20.9657 155.95 21.0386 155.914C21.1115 155.877 21.1687 155.815 21.1998 155.74C21.8133 153.605 22.1461 151.399 22.1897 149.177C26.3387 149.794 30.5772 149.147 34.3535 147.321C38.1298 145.495 41.2688 142.575 43.362 138.94C46.0152 139.948 48.7233 140.804 51.4734 141.506C60.1257 143.953 71.4084 146.382 82.0954 143.486C81.8846 148.609 81.5913 152.715 81.133 156.794C81.133 157.197 81.6921 157.316 81.7563 156.913C82.1137 154.768 83.0028 145.355 82.9478 143.238C89.7486 141.148 94.2947 136.428 95.4128 130.297C97.3651 119.903 92.9657 108.235 83.6993 99.1522ZM44.7735 59.6764C45.0118 62.3527 44.7735 64.2591 43.9577 65.4964C43.6553 65.9456 43.197 66.413 42.8029 66.413C42.5004 66.083 40.5207 64.03 38.6509 65.2306C37.4319 66.028 37.3769 67.577 38.5318 69.5934C39.3572 70.8182 39.9477 72.1857 40.2732 73.6262C36.7628 69.8134 35.6905 66.2389 34.8839 61.1153C35.8156 60.9473 36.666 60.477 37.3036 59.7772C38.9075 62.1602 42.8304 61.6836 44.7735 59.6764ZM39.0909 65.8356C40.3282 65.0748 41.4739 65.9914 42.5187 66.9079C43.1328 67.4487 44.141 66.688 44.6176 65.9914C45.8642 64.2683 45.7542 61.4086 45.5892 59.9788C46.4788 60.8261 47.6603 61.2986 48.8888 61.2986C50.1173 61.2986 51.2987 60.8261 52.1884 59.9788C52.3717 62.6185 57.9076 63.2234 59.3649 61.0328C60.034 65.6156 60.3548 75.5235 58.1368 79.6755C56.3037 80.482 52.1334 82.3243 50.062 81.5086C48.2838 80.8028 47.3856 78.0898 45.3142 76.9258C43.9211 76.1559 42.7296 77.0266 43.7011 78.5848C46.1575 82.4893 45.9375 83.9741 43.9944 87.9886C42.2914 87.5245 40.6988 86.7235 39.3108 85.6331C41.3272 82.7459 41.8772 77.5949 41.3731 74.167C40.924 71.1149 40.4565 71.2982 39.2467 69.0435C38.6876 68.1178 38.1926 66.4038 39.0909 65.8356ZM54.5531 84.3224C54.4799 84.3563 54.4218 84.4158 54.3895 84.4896C54.3573 84.5635 54.3531 84.6466 54.3779 84.7233C54.4028 84.8 54.4548 84.8649 54.5242 84.9059C54.5936 84.9468 54.6756 84.961 54.7547 84.9456C55.5407 84.8052 56.2857 84.4922 56.9361 84.0291C56.9889 84.8837 56.7638 85.7326 56.2945 86.4488C56.1295 86.6779 56.4228 87.3653 57.0186 86.5129C56.9727 89.0426 55.6804 92.1681 53.1966 93.3962C51.5131 93.0919 49.911 92.4421 48.4913 91.4877C47.0715 90.5333 45.8649 89.2951 44.9476 87.8511C47.6973 83.14 45.2776 79.6022 44.471 78.1357C44.0219 77.2924 44.251 77.1641 44.9843 77.6407C46.7166 78.7406 48.238 81.811 49.9153 82.2235C53.0774 82.9842 56.9727 81.0778 58.8792 80.2254C59.869 79.7763 60.4465 79.4738 59.255 80.9678C57.6602 82.9384 56.7528 83.3508 54.5531 84.3224ZM15.7647 123.441C15.7315 123.515 15.7263 123.599 15.7501 123.677C15.7738 123.755 15.8249 123.822 15.8939 123.866C15.963 123.909 16.0454 123.926 16.126 123.914C16.2066 123.901 16.2801 123.86 16.3329 123.798C24.3711 111.131 37.6702 102.342 44.5168 88.786C45.58 91.1507 50.1261 94.1936 52.9308 94.1936C52.9308 96.4758 52.7016 99.1888 52.4633 101.792C49.7137 101.159 42.2804 98.8314 40.9423 95.7884C40.7865 95.4126 40.1815 95.6693 40.3282 96.0451C41.5839 99.4455 49.3379 102.177 52.3808 102.754C51.7381 109.603 50.4648 116.377 48.5771 122.992C47.1932 127.941 45.415 133.926 42.8487 138.353C40.8027 141.993 37.6722 144.903 33.8934 146.679C30.1147 148.455 25.8759 149.008 21.7681 148.261C4.84854 145.291 2.30053 130.031 8.0473 113.909C13.4183 98.8039 25.1776 88.1719 38.7426 86.1555C40.2171 87.2428 41.8289 88.1303 43.5361 88.7951C36.662 102.058 23.5553 110.765 15.7647 123.441ZM49.3654 123.377C58.2717 119.623 67.7345 117.36 77.3751 116.677C80.1248 116.493 82.8745 116.502 85.6241 116.502C86.0274 116.502 86.0365 115.843 85.6241 115.843C83.7542 115.713 81.879 115.679 80.0056 115.742C79.5565 112.076 72.9482 101.379 70.7027 98.4189C70.6452 98.3646 70.5701 98.3327 70.4911 98.3291C70.412 98.3255 70.3343 98.3504 70.2721 98.3993C70.2099 98.4481 70.1674 98.5177 70.1522 98.5954C70.137 98.673 70.1502 98.7535 70.1894 98.8222C74.6897 105.128 78.3284 113.157 79.0524 115.778C70.996 116.081 58.5675 117.987 49.622 122.368C50.4652 119.28 53.7282 106.54 53.8015 93.9553C56.322 92.828 58.1184 88.7493 57.9076 86.0088C67.4108 88.1731 76.1268 92.9325 83.0853 99.7571C91.2517 107.759 96.2561 118.088 94.7163 129.316C93.9005 135.732 89.3453 140.699 82.5445 142.505C70.8218 145.713 58.76 142.927 47.184 139.334C46.0634 138.957 44.9219 138.644 43.7653 138.399C46.1078 133.582 47.9831 128.551 49.3654 123.377Z" fill="white" style="fill:white;fill-opacity:1;"/>
<path d="M48.9163 64.3694C49.1531 64.0194 49.469 63.73 49.8384 63.5246C50.2078 63.3192 50.6203 63.2036 51.0427 63.1871C51.7117 63.1871 51.6751 62.1789 51.0427 62.2705C50.4983 62.3278 49.9741 62.5086 49.5103 62.7993C49.0465 63.09 48.6552 63.4828 48.3663 63.9478C48.128 64.3236 48.6596 64.7361 48.9163 64.3694ZM51.0793 66.9083C50.7035 67.2107 50.731 68.7414 51.2993 68.7414C51.4293 68.7278 51.5508 68.6706 51.644 68.579C51.7373 68.4875 51.7967 68.367 51.8126 68.2373C52.0234 67.4399 51.4826 66.6241 51.0793 66.9083ZM50.2728 74.479C50.2556 74.4073 50.2168 74.3427 50.1615 74.294C50.1063 74.2452 50.0373 74.2148 49.964 74.2067C49.8908 74.1987 49.8169 74.2135 49.7524 74.2491C49.6879 74.2847 49.6359 74.3394 49.6037 74.4057C49.512 74.534 49.3379 74.9281 49.7228 75.7255C49.9841 76.2683 50.4351 76.6967 50.9907 76.9297C51.5463 77.1628 52.1679 77.1843 52.7383 76.9903C52.8155 76.9597 52.8788 76.9017 52.9161 76.8274C52.9535 76.7532 52.9622 76.6678 52.9407 76.5875C52.9192 76.5072 52.869 76.4376 52.7996 76.3919C52.7302 76.3462 52.6464 76.3276 52.5641 76.3396C51.2626 76.5962 50.5111 75.7713 50.2728 74.479Z" fill="white" style="fill:white;fill-opacity:1;"/>
</svg>
