<svg width="184" height="184" viewBox="0 0 184 184" fill="none" xmlns="http://www.w3.org/2000/svg">
<path d="M155.982 59.3829C155.524 61.216 152.747 60.2994 151.73 59.9603C151.643 59.9275 151.547 59.9304 151.463 59.9682C151.379 60.006 151.313 60.0757 151.28 60.1619C151.28 60.2628 150.996 61.2343 150.63 62.6458C150.607 62.7254 150.612 62.8104 150.643 62.887C150.675 62.9635 150.731 63.0271 150.804 63.0674C152.01 63.6942 153.341 64.0449 154.699 64.0939C154.782 64.0989 154.86 64.1314 154.921 64.1863C154.983 64.2412 155.024 64.3152 155.038 64.3964L155.231 65.4321C155.238 65.4793 155.254 65.5246 155.278 65.5655C155.303 65.6064 155.335 65.642 155.373 65.6702C155.412 65.6984 155.456 65.7186 155.502 65.7296C155.548 65.7407 155.596 65.7424 155.643 65.7346L158.393 65.3404C158.442 65.332 158.49 65.3133 158.531 65.2855C158.573 65.2578 158.608 65.2215 158.635 65.1792C158.662 65.1368 158.68 65.0893 158.687 65.0397C158.694 64.9901 158.691 64.9396 158.677 64.8913C158.586 64.5339 158.448 63.9748 158.329 63.4707C158.311 63.4037 158.314 63.3331 158.337 63.2678C158.36 63.2025 158.402 63.1455 158.457 63.1041C159.185 62.5304 159.706 61.7359 159.942 60.8402C161.069 56.5691 156.276 53.8102 156.276 53.8102C153.324 52.0871 150.611 51.1522 151.189 49.475C151.876 47.4677 154.855 49.09 155.772 49.6949C155.851 49.7421 155.944 49.7578 156.034 49.7392C156.124 49.7205 156.204 49.6687 156.257 49.5941L157.651 47.3302C157.697 47.2489 157.712 47.153 157.692 47.0614C157.671 46.9698 157.617 46.8892 157.541 46.8353C154.947 45.0664 153.636 45.6071 153.535 45.0022L153.306 43.4807C153.292 43.3848 153.241 43.2982 153.164 43.2398C153.087 43.1815 152.99 43.156 152.894 43.1691L150.208 43.5815C150.16 43.589 150.114 43.6064 150.073 43.6326C150.032 43.6589 149.997 43.6934 149.971 43.734C149.944 43.7746 149.926 43.8203 149.918 43.8682C149.91 43.9162 149.912 43.9652 149.924 44.0123C150.254 45.3597 150.391 45.598 150.061 45.7629C149.385 46.1025 148.804 46.6041 148.369 47.223C147.934 47.8419 147.659 48.5589 147.568 49.31C147 55.955 157.018 55.3317 155.982 59.3829ZM42.9048 71.3988C42.5932 73.4519 39.1286 73.2319 37.9278 73.1036C37.8119 73.0929 37.6962 73.1267 37.6042 73.1982C37.5123 73.2697 37.451 73.3735 37.4329 73.4886L37.1946 76.4307C37.1771 76.5179 37.1928 76.6085 37.2386 76.6848C37.2843 76.761 37.3569 76.8175 37.4421 76.8431C38.934 77.1941 40.4871 77.1941 41.9791 76.8431C42.0653 76.82 42.1572 76.8309 42.2357 76.8735C42.3141 76.9162 42.3732 76.9873 42.4007 77.0723L42.7582 78.438C42.7737 78.4838 42.7981 78.5261 42.83 78.5625C42.8619 78.5989 42.9007 78.6286 42.9442 78.6499C42.9876 78.6712 43.0349 78.6837 43.0832 78.6866C43.1315 78.6896 43.1799 78.6829 43.2256 78.6671C44.2304 78.1833 45.2688 77.7728 46.3328 77.4389C46.4407 77.3975 46.5289 77.3169 46.5799 77.2133C46.6309 77.1096 46.6409 76.9905 46.6078 76.8798C46.4611 76.5224 46.2045 75.6608 46.0212 75.1384C45.9964 75.0643 45.9927 74.9848 46.0105 74.9087C46.0284 74.8326 46.0669 74.763 46.122 74.7076C46.8831 73.9242 47.3854 72.926 47.561 71.8479C48.4043 66.9077 42.639 65.2763 42.639 65.2763C39.0919 64.2498 35.9022 64.0023 36.3697 62.0317C36.9288 59.667 40.4393 60.6294 41.6033 60.9777C41.7116 61.0067 41.8267 60.9958 41.9277 60.947C42.0286 60.8982 42.1087 60.8148 42.1532 60.7119L43.4456 57.8889C43.4681 57.8474 43.4821 57.8019 43.4869 57.755C43.4916 57.708 43.4871 57.6606 43.4734 57.6155C43.4598 57.5703 43.4374 57.5283 43.4074 57.4919C43.3775 57.4554 43.3406 57.4253 43.299 57.4031C41.8986 56.8514 40.3903 56.6288 38.8902 56.7524C38.8073 56.7627 38.7233 56.7435 38.653 56.6983C38.5826 56.6531 38.5304 56.5847 38.5053 56.5049L38.0378 54.8551C38.0232 54.8047 37.9977 54.7581 37.9631 54.7186C37.9284 54.6791 37.8855 54.6478 37.8374 54.6268C37.7893 54.6058 37.7371 54.5957 37.6846 54.5971C37.6321 54.5985 37.5806 54.6115 37.5337 54.6351L34.5457 55.4875C34.4368 55.5253 34.3466 55.6034 34.2937 55.7057C34.2409 55.8081 34.2293 55.9268 34.2615 56.0375C34.8207 57.8706 34.9765 58.0539 34.6465 58.3105C33.9225 58.8379 33.331 59.5265 32.919 60.3219C32.507 61.1173 32.2857 61.9976 32.2726 62.8933C32.3551 70.2257 43.6381 66.7244 42.9048 71.3988ZM86.2954 30.0166C86.7995 30.2916 85.7363 31.3548 86.2954 31.5747L88.486 32.2072C88.5264 32.2195 88.5688 32.2233 88.6107 32.2182C88.6526 32.2132 88.693 32.1994 88.7293 32.1778C88.7655 32.1563 88.7968 32.1273 88.8213 32.0929C88.8457 32.0585 88.8626 32.0194 88.871 31.978C89.1918 30.7315 89.201 30.6032 89.4393 30.5482C90.22 30.357 90.9236 29.9316 91.4557 29.3292C94.013 26.5062 91.6299 22.8034 91.6299 22.8034C90.1725 20.5028 88.5593 18.8805 89.6592 17.8173C90.9791 16.5342 92.464 18.7339 92.9314 19.5404C92.9511 19.5725 92.9769 19.6004 93.0075 19.6224C93.038 19.6444 93.0726 19.6602 93.1093 19.6687C93.146 19.6772 93.184 19.6784 93.2211 19.6721C93.2582 19.6658 93.2937 19.6522 93.3255 19.6321L95.2503 18.3948C95.2853 18.3756 95.3162 18.3497 95.3412 18.3186C95.3661 18.2874 95.3847 18.2517 95.3958 18.2133C95.4069 18.175 95.4102 18.1348 95.4057 18.0952C95.4012 18.0555 95.3889 18.0172 95.3695 17.9823C94.867 17.0345 94.1555 16.2133 93.2889 15.5809C93.0597 15.4068 93.1605 15.251 93.6463 14.0228C93.6622 13.9864 93.6699 13.9469 93.669 13.9072C93.6682 13.8675 93.6587 13.8284 93.6413 13.7927C93.6239 13.757 93.5989 13.7254 93.5681 13.7003C93.5373 13.6752 93.5015 13.657 93.463 13.647L91.3366 13.0421C91.2552 13.0225 91.1694 13.0355 91.0975 13.0783C91.0255 13.1212 90.9732 13.1904 90.9516 13.2712L90.6308 14.3986C90.6134 14.4642 90.5757 14.5227 90.523 14.5655C90.4703 14.6083 90.4053 14.6333 90.3375 14.6369C89.6858 14.6695 89.0509 14.8549 88.4841 15.1781C87.9173 15.5013 87.4344 15.9533 87.0745 16.4975C83.949 21.2819 91.5382 24.2332 89.1276 26.9187C88.0644 28.1102 86.3779 26.5154 85.7821 25.9013C85.7257 25.8464 85.6501 25.8157 85.5713 25.8157C85.4926 25.8157 85.417 25.8464 85.3605 25.9013L83.8848 27.5328C83.8401 27.5869 83.8157 27.655 83.8157 27.7252C83.8157 27.7955 83.8401 27.8635 83.8848 27.9177C84.5163 28.7934 85.3412 29.5116 86.2954 30.0166ZM103.435 53.9294C103.442 54.0027 103.473 54.0714 103.525 54.1234C103.577 54.1754 103.646 54.2073 103.719 54.2135C124.086 55.9641 124.956 57.0548 125.296 56.6607C125.635 56.2666 126.111 54.8276 125.461 54.6993C118.49 53.21 111.396 52.3693 104.269 52.188C103.701 52.188 103.39 53.3245 103.435 53.9294ZM82.5741 46.6245C81.8225 46.6245 85.3788 47.3211 103.087 51.0148C109.869 51.4152 116.623 52.2016 123.316 53.3703C123.324 53.3733 123.333 53.3746 123.342 53.3742C123.351 53.3737 123.36 53.3715 123.368 53.3677C123.376 53.3639 123.383 53.3585 123.389 53.3519C123.395 53.3452 123.4 53.3375 123.403 53.3291C123.406 53.3206 123.407 53.3117 123.407 53.3028C123.406 53.2938 123.404 53.2851 123.4 53.277C123.396 53.2689 123.391 53.2616 123.384 53.2556C123.378 53.2496 123.37 53.245 123.362 53.242C113.435 48.4759 94.4071 46.0837 82.5741 46.6245Z" fill="white" style="fill:white;fill-opacity:1;"/>
<path d="M155.68 72.3341C160.152 72.3341 166.449 70.1894 168.566 65.9183C174.487 53.9389 168.86 40.2549 161.234 36.9003C158.75 35.8188 156.22 35.5713 151.931 35.9837C150.348 36.1695 148.819 36.6708 147.434 37.4579C146.048 38.2451 144.835 39.3021 143.865 40.5665C135.433 51.0335 141.363 72.3341 155.68 72.3341ZM141.015 48.5038C143.334 36.2129 153.975 33.4632 161.124 40.099C171.719 49.9245 168.081 70.5193 155.991 71.555C146.413 72.4074 138.723 60.6206 141.006 48.5771L141.015 48.5038Z" fill="white" style="fill:white;fill-opacity:1;"/>
<path d="M150.529 67.7696C151.829 68.4569 153.274 68.8245 154.745 68.842C160.4 68.842 165.927 62.5086 164.827 53.0865C163.443 41.0063 152.179 35.1679 145.891 42.9128C140.052 50.1077 142.436 63.5901 150.529 67.7696ZM152.215 40.099C157.266 39.6223 163.324 44.4892 164.323 53.1598C165.478 63.2418 158.311 71.06 150.831 67.1647C147.761 65.5699 144.232 61.5554 143.499 55.057C142.765 48.5587 145.735 40.7039 152.215 40.099ZM85.0214 35.4704C85.9161 35.8376 86.8772 36.0158 87.8441 35.9937C88.811 35.9717 89.7629 35.7498 90.64 35.3421C99.9798 31.3551 103.142 14.2614 94.7187 10.7419C89.2193 8.44131 83.509 13.9773 81.3184 19.5591C78.9812 25.5166 79.7419 33.289 85.0214 35.4704ZM92.1981 10.8335C97.5876 10.8335 99.7324 16.8277 98.935 22.4095C98.22 27.3864 95.2687 32.1616 91.4741 34.3247C87.6794 36.4877 84.004 35.3696 82.0975 32.0516C77.7254 24.3893 84.3248 10.8335 92.1981 10.8335Z" fill="white" style="fill:white;fill-opacity:1;"/>
<path d="M85.2413 38.3757C86.8751 39.1529 88.6489 39.5925 90.4566 39.668C95.6078 39.668 100.887 35.2319 103.481 28.6694C106.341 21.337 104.92 13.473 100.172 10.3384C98.8162 9.64616 97.4206 9.03408 95.9927 8.50531C87.2853 4.87577 76.5339 16.9009 78.3762 29.3293C79.0819 34.0221 81.575 37.3308 85.2413 38.3757ZM80.1085 19.0548C81.4443 15.4141 83.8785 12.2785 87.0745 10.0818C90.035 8.16619 93.1422 7.72624 95.8277 8.83527C104.993 12.639 102.922 30.2092 93.2888 36.4234C83.2799 42.8759 75.159 31.6115 80.1085 19.0548ZM37.2129 88.3826C42.0829 88.6752 46.8756 87.0613 50.5765 83.8824C60.2647 77.5857 61.3829 63.7183 53.7387 54.6628C48.0009 47.862 38.7344 45.4973 31.2185 48.9068C10.7239 55.3135 16.7275 86.7237 37.2129 88.3826ZM40.6592 48.0544C57.0017 50.1442 64.1601 71.4906 52.098 82.0401C40.2926 92.333 20.9345 82.3517 21.2003 65.4231C21.3745 54.9286 30.0086 46.7438 40.6592 48.0636V48.0544Z" fill="white" style="fill:white;fill-opacity:1;"/>
<path d="M33.0517 80.9585C34.8927 82.0176 36.9357 82.6782 39.0483 82.8977C41.1608 83.1172 43.296 82.8905 45.3154 82.2325C54.1145 79.2812 58.0283 68.4843 52.8863 59.4929C47.7443 50.5016 36.388 48.4027 29.3212 54.5252C21.0812 61.711 23.3177 75.4684 33.0517 80.9585ZM38.6244 51.7847C46.1312 51.7847 52.8405 57.5865 54.2062 65.4138C56.4976 78.438 42.5199 87.5027 31.5668 79.2721C29.4701 77.7003 27.7739 75.656 26.616 73.3054C25.4582 70.9547 24.8714 68.364 24.9033 65.7438C25.0683 57.9348 31.026 51.7847 38.6244 51.7847ZM102.308 82.7733C102.237 82.774 102.169 82.7995 102.115 82.8454C102.061 82.8913 102.025 82.9547 102.013 83.0245C102.001 83.0943 102.014 83.1661 102.049 83.2274C102.085 83.2887 102.141 83.3356 102.207 83.3599C105.058 84.2764 105.452 82.26 104.251 79.5837C104.228 79.5144 104.178 79.4571 104.113 79.4245C104.048 79.3918 103.972 79.3865 103.903 79.4095C103.834 79.4326 103.776 79.4823 103.744 79.5476C103.711 79.6129 103.706 79.6886 103.729 79.7578C103.919 80.5788 104.024 81.4174 104.04 82.26C104.004 82.6541 103.985 82.7916 102.308 82.7733ZM96.0661 82.9933C95.7086 85.7429 98.9258 88.0343 101.199 86.9528C101.26 86.9214 101.307 86.8693 101.332 86.806C101.358 86.7426 101.359 86.6722 101.337 86.6077C101.315 86.5432 101.27 86.4888 101.211 86.4546C101.152 86.4203 101.083 86.4085 101.016 86.4212C100.495 86.4998 99.9641 86.4731 99.4541 86.3426C98.9442 86.2122 98.4655 85.9807 98.0467 85.6619C97.6279 85.3431 97.2773 84.9434 97.0158 84.4866C96.7543 84.0297 96.5872 83.525 96.5244 83.0024C96.5256 82.9417 96.5026 82.8829 96.4605 82.8391C96.4184 82.7952 96.3606 82.7699 96.2998 82.7687C96.239 82.7675 96.1803 82.7905 96.1364 82.8326C96.0926 82.8747 96.0673 82.9325 96.0661 82.9933ZM99.1916 78.383C100.108 78.5297 100.594 75.6884 99.659 75.5417C98.7242 75.3951 98.2475 78.2272 99.1916 78.383ZM107.908 76.3391C106.992 76.1833 106.478 79.1896 107.523 79.1896C108.403 79.1896 108.834 76.4949 107.908 76.3391ZM101.327 72.4071C100.539 70.8398 98.0734 70.7665 96.946 72.4071C96.9016 72.4667 96.88 72.5401 96.885 72.6142C96.8899 72.6884 96.9212 72.7582 96.9732 72.8113C97.0252 72.8644 97.0944 72.8972 97.1684 72.9037C97.2424 72.9103 97.3163 72.8902 97.3768 72.8471C97.8568 72.4438 98.4602 72.2167 99.087 72.2033C99.7138 72.19 100.326 72.3912 100.823 72.7737C100.879 72.8128 100.946 72.8335 101.015 72.8327C101.083 72.832 101.15 72.8099 101.206 72.7696C101.261 72.7293 101.302 72.6728 101.324 72.6078C101.346 72.5428 101.347 72.4727 101.327 72.4071ZM110.209 73.9286C110.25 73.9858 110.31 74.0273 110.378 74.0462C110.446 74.0651 110.518 74.0603 110.583 74.0326C110.648 74.0049 110.702 73.9559 110.736 73.8937C110.769 73.8315 110.781 73.7598 110.768 73.6903C110.636 73.3184 110.419 72.983 110.133 72.7112C109.847 72.4394 109.501 72.2391 109.123 72.1265C108.745 72.0139 108.346 71.9923 107.958 72.0633C107.57 72.1344 107.204 72.2962 106.891 72.5354C106.837 72.5781 106.799 72.6379 106.784 72.7049C106.768 72.7719 106.776 72.8421 106.806 72.904C106.836 72.9659 106.886 73.0158 106.948 73.0454C107.01 73.075 107.081 73.0827 107.147 73.067C107.68 72.8405 108.273 72.8024 108.83 72.9591C109.386 73.1158 109.873 73.4578 110.209 73.9286ZM31.0077 138.646C30.9628 140.644 31.3964 142.624 32.2726 144.42C32.2944 144.476 32.3371 144.521 32.3915 144.545C32.4458 144.57 32.5076 144.572 32.5637 144.552C32.6198 144.532 32.6658 144.49 32.6919 144.437C32.7179 144.383 32.7221 144.321 32.7034 144.265C32.109 142.457 31.7998 140.567 31.7868 138.665C31.7868 137.684 32.0343 136.556 32.4651 136.419C32.6759 136.355 33.1892 136.474 34.2432 138.014C34.2748 138.066 34.3259 138.104 34.3852 138.118C34.4445 138.133 34.5072 138.123 34.5594 138.092C34.6117 138.06 34.6493 138.009 34.6639 137.95C34.6785 137.89 34.6689 137.828 34.6373 137.775C32.9967 134.467 31.0994 135.356 31.0077 138.646ZM41.4566 164.374C40.1694 164.219 38.9479 163.719 37.9216 162.927C36.8953 162.135 36.1025 161.08 35.6272 159.873C35.5933 159.806 35.5366 159.753 35.4671 159.723C35.3977 159.693 35.32 159.689 35.2477 159.711C35.1754 159.733 35.1131 159.779 35.0719 159.843C35.0307 159.906 35.0131 159.982 35.0223 160.057C35.3275 161.513 36.1403 162.813 37.3157 163.724C38.491 164.636 39.9523 165.1 41.4383 165.034C41.4816 165.035 41.5248 165.028 41.5653 165.012C41.6058 164.997 41.6428 164.973 41.6743 164.943C41.7058 164.914 41.7311 164.878 41.7488 164.838C41.7665 164.799 41.7762 164.756 41.7774 164.713C41.7787 164.67 41.7713 164.626 41.7558 164.586C41.7404 164.545 41.7171 164.508 41.6873 164.477C41.6575 164.445 41.6218 164.42 41.5822 164.402C41.5426 164.385 41.5 164.375 41.4566 164.374ZM40.9525 142.569C40.1368 143.11 41.3833 145.126 42.2541 145.126C42.3423 145.124 42.4289 145.102 42.5079 145.063C42.5869 145.024 42.6564 144.968 42.7114 144.899C42.7664 144.83 42.8057 144.749 42.8264 144.664C42.8472 144.578 42.8489 144.489 42.8315 144.402C42.7857 143.541 41.6675 142.065 40.9525 142.569ZM44.7655 141.524C44.1514 141.158 43.7114 141.524 43.7389 142.074C43.7847 142.936 44.8755 144.393 45.5721 143.907C46.2687 143.421 45.6271 142.065 44.7655 141.524ZM24.3809 139.609C20.2838 139.022 17.0483 139.609 14.4361 141.249C14.3431 141.309 14.2747 141.4 14.2436 141.506C14.0304 142.193 14.0694 142.934 14.3536 143.596C14.3748 143.64 14.4051 143.68 14.4425 143.713C14.48 143.746 14.5239 143.77 14.5713 143.785C14.6187 143.799 14.6687 143.804 14.718 143.798C14.7673 143.792 14.8149 143.776 14.8577 143.751C17.7111 142.266 20.9736 141.761 24.1426 142.312C24.1794 142.322 24.2177 142.323 24.2552 142.317C24.2927 142.311 24.3285 142.297 24.3603 142.277C24.3922 142.256 24.4194 142.229 24.4403 142.197C24.4612 142.166 24.4753 142.13 24.4817 142.092C24.629 141.372 24.6844 140.636 24.6467 139.902C24.6432 139.83 24.6148 139.761 24.5663 139.708C24.5179 139.654 24.4523 139.619 24.3809 139.609ZM50.6315 152.147C49.2109 152.147 49.3392 156.216 50.7232 156.18C52.1072 156.143 52.0156 152.147 50.6315 152.147ZM54.4262 153.064C54.2153 152.22 53.5646 152.092 53.0513 152.789C52.2997 153.788 52.2447 156.015 53.2254 156.015C54.2062 156.015 54.7011 154.118 54.4262 153.064ZM89.5401 162.531H86.7904C86.6805 162.536 86.576 162.58 86.4966 162.656C86.4172 162.732 86.3685 162.834 86.3596 162.944L86.1579 164.713C86.15 164.85 86.1949 164.986 86.2835 165.092C86.372 165.197 86.4976 165.265 86.6345 165.281C87.6888 165.391 88.7516 165.391 89.8059 165.281C89.9382 165.267 90.0596 165.202 90.1437 165.099C90.2278 164.996 90.2678 164.864 90.255 164.731L90.0717 163.036C90.0568 162.902 89.9952 162.779 89.898 162.686C89.8007 162.594 89.6739 162.539 89.5401 162.531ZM91.4741 162.962L91.3274 164.713C91.3222 164.854 91.3717 164.992 91.4656 165.098C91.5595 165.204 91.6905 165.269 91.8315 165.281C92.9262 165.377 94.0273 165.377 95.122 165.281C95.2582 165.265 95.3828 165.197 95.4699 165.091C95.5571 164.985 95.5999 164.85 95.5895 164.713C95.3512 163.512 95.5895 162.55 94.8195 162.531C94.0496 162.513 92.9222 162.531 91.914 162.531C91.8003 162.536 91.6922 162.582 91.6109 162.662C91.5296 162.742 91.4808 162.849 91.4741 162.962ZM96.9093 165.281C97.9794 165.382 99.0565 165.382 100.127 165.281C100.259 165.267 100.382 165.202 100.467 165.099C100.553 164.997 100.595 164.864 100.585 164.731L100.401 163.036C100.384 162.897 100.316 162.77 100.212 162.677C100.107 162.584 99.9729 162.533 99.8332 162.531H96.9918C96.881 162.535 96.7753 162.579 96.6944 162.655C96.6135 162.731 96.5629 162.834 96.5519 162.944L96.4144 164.695C96.4081 164.766 96.4159 164.837 96.4375 164.905C96.459 164.973 96.4937 165.036 96.5397 165.091C96.5858 165.145 96.6421 165.19 96.7055 165.223C96.769 165.256 96.8382 165.275 96.9093 165.281ZM101.969 165.281C103.101 165.364 104.237 165.364 105.369 165.281C105.437 165.276 105.503 165.259 105.563 165.228C105.624 165.198 105.678 165.156 105.722 165.105C105.766 165.054 105.8 164.995 105.821 164.931C105.843 164.866 105.851 164.799 105.846 164.731L105.653 163.026C105.628 162.887 105.554 162.762 105.445 162.671C105.336 162.581 105.199 162.531 105.058 162.531H102.051C101.938 162.533 101.829 162.576 101.745 162.651C101.66 162.727 101.606 162.831 101.593 162.944L101.456 164.695C101.449 164.767 101.458 164.84 101.48 164.909C101.503 164.978 101.539 165.042 101.587 165.097C101.635 165.152 101.694 165.196 101.759 165.228C101.825 165.26 101.896 165.278 101.969 165.281ZM135.653 157.793C132.903 157.215 123.27 161.587 122.958 161.927C122.207 162.724 122.555 165.144 123.187 165.849C123.82 166.555 141.152 174.007 147.018 175.235C148.641 175.354 154.351 172.714 155.863 172.009C157.696 171.092 159.667 170.359 159.997 168.553C159.997 168.553 160.336 166.298 159.475 165.675C154.296 162.412 143.755 159.479 135.653 157.793ZM135.552 158.37C141.638 159.534 153.627 163.1 158.778 166.088C157.321 167.243 148.696 171.239 147.431 171.45C142.665 168.892 129.164 164.117 123.453 162.394C123.811 162.037 132.967 157.885 135.506 158.37H135.552ZM147.403 174.355C144.58 174.355 126.395 166.839 123.875 165.501C123.352 165.226 123.132 163.668 123.279 162.843C127.587 164.456 146.368 171.285 147.202 172.164C147.416 172.485 147.542 172.855 147.57 173.239C147.597 173.623 147.524 174.008 147.358 174.355H147.403ZM159.319 168.416C159.09 169.644 157.971 170.176 155.744 171.23C153.3 172.42 150.765 173.416 148.164 174.208C148.372 173.483 148.307 172.707 147.981 172.027C150.19 171.45 157.706 168.113 159.3 166.583C159.364 167.193 159.346 167.81 159.245 168.416H159.319Z" fill="white" style="fill:white;fill-opacity:1;"/>
<path d="M155.817 165.703C155.45 164.97 135.598 158.819 134.791 158.994C132.646 159.47 131.125 159.91 126.799 162.082C126.752 162.103 126.712 162.137 126.684 162.18C126.656 162.224 126.641 162.274 126.641 162.325C126.641 162.377 126.656 162.427 126.684 162.47C126.712 162.513 126.752 162.547 126.799 162.568C131.904 164.456 147.165 169.901 147.458 169.846C155.872 165.95 156.064 166.189 155.817 165.703ZM128.595 162.605C130.523 161.529 132.589 160.724 134.736 160.213C141.784 161.945 148.649 164.282 153.919 166.161C151.641 166.998 149.423 167.993 147.284 169.14C143.123 167.554 135.231 164.64 128.595 162.605Z" fill="white" style="fill:white;fill-opacity:1;"/>
<path d="M159.63 149.48C159.611 149.2 159.523 148.929 159.374 148.692C159.633 148.687 159.888 148.618 160.114 148.49C160.34 148.362 160.531 148.179 160.668 147.959C160.806 147.738 160.886 147.487 160.902 147.227C160.917 146.968 160.868 146.709 160.758 146.474C169.062 139.031 179.41 126.31 178.86 124.788C178.484 123.771 178.484 126.209 145.863 120.975C139.035 105.944 130.786 91.2332 112.097 90.6557C112.018 90.6539 111.941 90.6794 111.88 90.7278C111.818 90.7763 111.775 90.8448 111.758 90.9215C110.584 96.0359 106.882 107.786 97.8532 106.375C91.0889 105.311 86.2769 97.5665 84.4804 90.2983C86.3144 90.3753 88.1515 90.3324 89.9799 90.17C90.0425 90.1641 90.1018 90.139 90.1494 90.0979C90.1971 90.0568 90.2307 90.0019 90.2457 89.9408C90.9994 86.799 91.1518 83.543 90.6948 80.3445C90.6897 80.3053 90.6763 80.2676 90.6553 80.234C90.6343 80.2005 90.6063 80.1718 90.5732 80.1501C90.5402 80.1283 90.5028 80.1139 90.4637 80.108C90.4245 80.102 90.3846 80.1045 90.3465 80.1154C87.8901 80.757 87.1202 77.2099 87.8626 75.5327C87.9686 75.2673 88.1619 75.0461 88.4106 74.9055C88.6593 74.7648 88.9486 74.7132 89.2306 74.7591C89.5126 74.8051 89.7705 74.9458 89.9617 75.1581C90.1529 75.3704 90.266 75.6415 90.2824 75.9268C90.2824 77.1274 93.0321 74.3411 92.6654 71.4998C93.0504 71.4998 93.4262 71.4998 93.7928 71.4357C94.3336 71.3715 93.6645 69.2818 95.7726 67.3387C95.5527 68.0206 95.5241 68.7498 95.6901 69.4468C95.8093 69.8317 97.5233 69.8684 98.5132 69.5934C98.8707 69.5018 98.7057 68.5577 100.236 65.6889C102.798 66.2319 105.409 66.5113 108.027 66.523C109.095 67.3254 110.067 68.248 110.924 69.2726C114.957 74.1028 109.943 88.5935 104.196 91.8289C101.877 93.1304 99.6131 92.7455 97.3216 91.3798C97.0742 91.224 96.8908 91.1048 96.7534 91.2973C96.7141 91.3397 96.6922 91.3953 96.6922 91.4531C96.6922 91.5109 96.7141 91.5666 96.7534 91.6089C100.31 94.5419 104.535 94.1203 107.926 89.4459C108.467 89.5284 110.429 89.7025 110.676 89.2076C111.049 88.3581 111.299 87.4601 111.419 86.5404C112.17 88.4927 111.474 89.9317 112.188 89.8583C113.056 89.8219 113.897 89.5459 114.617 89.0609C114.646 89.0359 114.669 89.0049 114.685 88.9701C114.701 88.9353 114.709 88.8975 114.709 88.8593C114.732 87.6699 114.612 86.4821 114.352 85.3214C115.626 87.1545 115.671 87.9336 115.919 87.9611C116.441 88.0436 118.21 86.7329 118.183 86.3754C117.898 84.9719 117.358 83.6328 116.588 82.4251C116.185 81.4514 116.071 80.3825 116.258 79.3455C117.019 80.8275 117.574 82.4063 117.908 84.0382C117.963 84.3315 117.981 84.4965 118.274 84.4873C118.797 84.4448 119.306 84.299 119.772 84.0583C120.237 83.8176 120.651 83.4867 120.988 83.085C121.023 83.0478 121.048 83.0022 121.061 82.9524C121.074 82.9027 121.074 82.8506 121.061 82.8009C120.898 82.0842 120.668 81.3845 120.373 80.7112C121.794 81.4352 123.343 80.7112 123.361 80.2621C123.481 76.77 122.647 75.3219 121.592 74.222C121.877 74.3778 123.783 74.2953 124.232 73.2504C124.309 72.8816 124.309 72.501 124.232 72.1323C124.105 71.3665 123.82 70.6357 123.393 69.9869C122.967 69.3382 122.41 68.7857 121.757 68.3652C120.218 67.302 118.898 66.8071 118.449 65.1115C120.749 65.8447 120.694 67.8611 123.361 69.0893C123.392 69.111 123.429 69.1226 123.467 69.1226C123.505 69.1226 123.541 69.111 123.572 69.0893C124.874 68.4019 125.103 66.7246 124.791 66.5505C122.647 65.3864 122.344 61.8302 118.11 61.2345C120.08 60.7395 120.859 61.0603 120.923 60.5746C120.994 60.1497 120.962 59.7141 120.83 59.3043C120.697 58.8944 120.468 58.5223 120.163 58.219C118.193 57.8031 116.155 57.8471 114.205 58.3473C114.434 57.2933 114.59 56.5142 114.59 56.5142C114.59 56.2943 115.58 56.4501 102.335 55.2861C91.6297 52.6831 92.308 52.7747 92.253 53.013C92.253 53.0588 91.9322 57.6508 92.088 61.1336C92.198 63.4892 96.7534 64.8915 99.6131 65.5331C98.8617 66.5911 98.3746 67.8137 98.1924 69.0985C97.4998 69.0478 96.8044 69.0478 96.1118 69.0985C96.1618 68.3677 96.266 67.6416 96.4234 66.9262C96.4967 66.5505 96.5242 66.4313 96.4234 66.3488C96.1026 66.0922 93.4445 67.6962 93.4812 70.9316C92.473 70.9316 92.1155 70.8308 91.2906 70.7758C91.1495 68.8932 91.668 67.0202 92.7571 65.4781L92.8213 65.3864C92.8405 65.363 92.855 65.3359 92.8638 65.3069C92.8726 65.2778 92.8756 65.2473 92.8726 65.2171C92.8696 65.1869 92.8607 65.1576 92.8464 65.1308C92.8321 65.104 92.8127 65.0803 92.7892 65.0611C92.7657 65.0418 92.7387 65.0274 92.7096 65.0186C92.6806 65.0097 92.6501 65.0067 92.6199 65.0097C92.5896 65.0127 92.5603 65.0216 92.5335 65.0359C92.5067 65.0502 92.4831 65.0697 92.4638 65.0931C91.7419 65.9136 91.2125 66.8851 90.9143 67.9365C90.6162 68.9879 90.5568 70.0926 90.7406 71.1699C90.7513 71.2341 90.7817 71.2934 90.8277 71.3394C90.8738 71.3854 90.9331 71.4159 90.9973 71.4265C91.3639 71.4815 91.7397 71.509 92.1155 71.5273C91.9925 72.8958 91.4981 74.2047 90.6856 75.3127C90.5602 74.9826 90.3455 74.6938 90.0655 74.4785C89.7855 74.2633 89.4513 74.1301 89.1 74.0937C85.672 73.7362 86.2678 81.5177 90.1357 80.7387C90.1357 82.6634 90.1357 83.8824 89.9982 86.018L88.7792 86.7146C88.288 85.5684 87.6369 84.4976 86.8452 83.5341C86.8254 83.5125 86.8014 83.4951 86.7746 83.4833C86.7477 83.4714 86.7187 83.4653 86.6894 83.4653C86.6601 83.4653 86.631 83.4714 86.6042 83.4833C86.5774 83.4951 86.5533 83.5125 86.5336 83.5341C86.1914 84.8933 86.1013 86.3036 86.2678 87.6953C85.5579 87.6966 84.8555 87.5499 84.2055 87.2645C83.8645 85.2572 83.7998 83.2126 84.013 81.1878C84.0193 81.1301 84.0078 81.0718 83.98 81.0209C83.9522 80.97 83.9095 80.9287 83.8576 80.9028C83.8057 80.8768 83.7471 80.8674 83.6897 80.8757C83.6322 80.8841 83.5787 80.9098 83.5364 80.9495C82.2306 82.1378 81.1744 83.5742 80.4292 85.1748C79.6366 84.9879 78.9373 84.5228 78.4586 83.8641C79.8151 80.427 81.859 79.648 81.9415 75.9268C81.9455 75.8742 81.9337 75.8216 81.9076 75.7758C81.8816 75.7299 81.8425 75.6928 81.7953 75.6692C81.7482 75.6456 81.6951 75.6366 81.6427 75.6433C81.5904 75.65 81.5413 75.6721 81.5016 75.7068C80.2737 76.6846 79.1131 77.7441 78.0278 78.8781C77.4457 78.3365 77.0509 77.6239 76.9004 76.8433C79.1368 75.2485 80.8508 73.7912 81.0983 70.9316C81.0983 70.8674 81.0983 70.6841 80.9883 70.6199C80.8783 70.5558 80.86 70.6199 79.5584 71.5365C78.7668 72.0226 78.0658 72.643 77.487 73.3696C76.8846 72.7423 76.555 71.902 76.5704 71.0324C78.9352 69.071 81.0433 68.9427 81.5016 65.5331C81.5087 65.492 81.5044 65.4498 81.4893 65.411C81.4742 65.3721 81.4487 65.3382 81.4157 65.3127C81.3827 65.2873 81.3434 65.2713 81.302 65.2665C81.2606 65.2617 81.2187 65.2684 81.1808 65.2856C79.7303 65.9362 78.3935 66.815 77.2212 67.8886C76.8388 67.3779 76.5644 66.7948 76.4146 66.1747C81.1625 63.9475 82.0057 60.9045 85.1312 59.8413C85.3878 59.7588 85.3787 59.5663 85.2229 59.4655C84.7646 59.1906 81.3641 59.0348 78.3302 61.0145C77.9213 60.3483 77.7144 59.5779 77.7345 58.7965C83.0872 56.7709 84.9021 57.0183 87.9726 57.5041C86.7391 60.4279 85.9363 63.5153 85.5895 66.6696C85.8278 67.1829 87.221 67.1004 87.221 67.1004C87.3637 64.6134 87.8005 62.1521 88.5225 59.768C88.3355 61.9778 88.2621 64.1957 88.3026 66.413C88.8509 66.4324 89.3994 66.3801 89.9341 66.2572C89.8241 62.7193 89.8241 56.5051 91.6572 51.6015L101.74 53.8929C101.77 53.8985 101.801 53.8972 101.83 53.8891C101.86 53.8809 101.887 53.8661 101.91 53.8457C101.933 53.8254 101.951 53.8001 101.963 53.7717C101.975 53.7434 101.98 53.7127 101.978 53.6821C101.921 53.1193 102.04 52.5528 102.317 52.0598C102.491 51.7573 103.289 52.0598 81.3824 47.2754C81.2699 47.2545 81.1536 47.2757 81.0557 47.3348C80.9577 47.3939 80.8848 47.4869 80.8508 47.5962C80.4292 48.9894 81.1533 49.2185 81.1533 49.2185L90.1815 51.2716C89.9811 52.2278 89.7021 53.1659 89.3475 54.0762C88.0826 53.0588 86.2036 52.5456 85.8828 52.8664C84.9662 53.7829 84.8837 55.1669 85.1495 55.3502C85.8233 55.7786 86.4665 56.2533 87.0743 56.7709C83.6647 56.0743 80.7683 56.7709 77.267 58.2007C77.2074 58.2283 77.1569 58.2723 77.1212 58.3274C77.0855 58.3825 77.0662 58.4466 77.0654 58.5123C77.0513 59.5969 77.4069 60.6539 78.0736 61.5094C78.4769 62.0227 79.8426 60.2079 83.6922 59.878C81.4832 61.0053 80.0259 63.6267 76.3596 65.5789C75.993 65.7806 75.828 65.8722 75.8372 66.0555C75.8505 66.5357 75.9652 67.0077 76.1737 67.4405C76.3822 67.8733 76.6798 68.2571 77.047 68.5669C77.4778 68.7502 77.047 68.4386 80.8508 66.0097C79.9342 68.8143 78.2202 68.5852 75.9655 70.5924C75.6722 70.8491 75.7547 72.673 77.2395 74.0662C77.2995 74.125 77.3801 74.1579 77.4641 74.1579C77.548 74.1579 77.6287 74.125 77.6886 74.0662C78.5014 73.1274 79.4247 72.2903 80.4384 71.5732C79.4393 75.1019 76.0755 76.0734 76.2038 76.6783C76.2248 77.266 76.3917 77.8392 76.6893 78.3464C76.9869 78.8535 77.4059 79.2788 77.9086 79.5838C78.4586 79.7946 78.2019 79.2905 81.3824 76.5592C80.9975 79.9229 78.4952 80.8853 77.8261 83.7999C77.6978 84.1574 78.6694 85.5414 80.5758 85.9905C81.3366 86.1555 80.7775 84.8448 83.3256 81.9668C83.1391 83.7984 83.1853 85.6462 83.463 87.4661C83.6005 88.236 85.6353 88.3827 86.6436 88.2727C87.2485 88.1902 86.6436 87.8877 86.8269 84.4507C88.7333 88.0161 87.8718 87.9611 89.8974 86.7696C89.8241 87.6861 89.7416 88.6027 89.6316 89.5192C85.4887 89.2717 84.2971 89.6384 84.2605 89.4642C84.2238 89.2901 84.1688 88.9876 83.9213 88.9784C58.2573 88.1994 40.8424 111.37 36.5162 136.584C32.8132 131.983 29.0003 132.9 27.4971 136.236C15.5816 134.641 6.69087 140.122 4.88522 150.231C3.66618 157.051 5.06854 162.147 9.46809 166.729C8.88148 173.457 10.3847 173.732 13.1344 174.245C15.1171 174.603 17.1576 174.464 19.0738 173.842C19.2485 173.804 19.4054 173.709 19.5186 173.571C19.6319 173.432 19.6948 173.26 19.697 173.081C20.5495 173.081 22.2909 173.026 22.8959 172.302C23.0823 171.967 23.1593 171.583 23.1159 171.202C26.0764 171.587 24.8849 170.726 25.5814 173.264C25.9114 174.483 26.1864 174.786 27.2129 175.097C29.5685 175.748 37.2952 175.959 37.8727 173.384C39.0551 173.475 42.2997 173.585 42.9688 172.128C43.1842 171.213 43.2644 170.271 43.2071 169.332C48.4499 168.058 52.3179 165.015 54.3985 160.515C65.0674 159.956 73.0416 157.61 78.7702 153.348C81.1166 157.454 83.7014 157.115 82.4365 153.925C84.4988 156.162 86.2311 154.842 84.5263 151.707C84.9888 152.168 85.592 152.462 86.2403 152.541L89.3108 158.865H87.8534C87.5968 158.865 87.5693 159.03 87.551 159.205C87.5447 159.299 87.5447 159.394 87.551 159.489C87.5299 159.484 87.5079 159.484 87.4868 159.489H84.7371C84.0405 159.562 83.5272 160.918 82.9039 162.486C81.859 165.235 81.8499 166.033 81.8316 166.94C81.7752 167.629 81.8708 168.322 82.1115 168.969C82.3522 169.617 82.7323 170.204 83.2247 170.689C83.8388 171.303 107.899 171.67 108.385 171.056C108.999 170.385 109.412 169.553 109.574 168.658C109.736 167.763 109.641 166.84 109.301 165.996C109.301 165.941 106.991 160.497 106.552 160.112C105.889 159.797 105.156 159.661 104.425 159.718H104.278V159.397C104.267 159.295 104.219 159.2 104.143 159.131C104.067 159.062 103.969 159.023 103.866 159.021C102.949 159.021 102.299 158.975 101.547 159.021C101.18 159.021 101.235 159.47 101.217 159.69H100.145C100.145 159.534 100.145 159.113 99.7047 159.104H96.955C96.6159 159.104 96.6617 159.516 96.6434 159.608H95.7268C95.7268 159.553 95.7268 159.012 95.2868 159.003C94.8469 158.994 94.0586 159.003 93.6003 159.003C93.6055 158.924 93.6055 158.844 93.6003 158.765C93.527 158.141 89.6866 150.607 89.3566 149.984H127.66C136.019 151.111 141.491 151.615 151.024 152.11C152.142 154.154 154.534 154.044 154.864 152.67C156.496 153.174 157.614 152.734 157.614 151.056C157.986 151.117 158.368 151.062 158.707 150.898C159.047 150.734 159.328 150.469 159.511 150.14C176.633 150.14 176.284 150.296 176.275 149.828C176.266 149.361 176.688 149.48 159.63 149.48ZM112.225 65.5148C112.999 63.4448 113.612 61.3182 114.058 59.1539C115.653 58.4573 118.119 58.5673 119.934 58.8973C120.225 59.2962 120.383 59.7778 120.383 60.2721C119.121 60.2697 117.879 60.5849 116.771 61.1886C116.744 61.2023 116.72 61.2216 116.701 61.2454C116.682 61.2691 116.669 61.2966 116.661 61.3261C116.579 61.6286 116.973 61.6469 117.285 61.6836C122.115 62.2793 121.867 65.6797 124.434 66.8896C124.257 67.5278 123.927 68.1131 123.471 68.5944C120.942 67.0087 120.951 64.8273 118.165 64.5432C118.133 64.5413 118.101 64.5467 118.071 64.5589C118.042 64.5711 118.016 64.5898 117.994 64.6136C117.973 64.6374 117.958 64.6657 117.949 64.6964C117.941 64.7271 117.939 64.7593 117.945 64.7907C118.265 68.8693 123.261 67.7786 123.801 73.0396C123.271 73.3834 122.655 73.5738 122.023 73.5896C121.861 72.6137 121.416 71.7069 120.743 70.9819C120.07 70.2568 119.199 69.7453 118.238 69.5109C118.202 69.4989 118.165 69.4957 118.128 69.5017C118.091 69.5077 118.056 69.5226 118.026 69.5453C117.996 69.5679 117.972 69.5974 117.956 69.6314C117.941 69.6654 117.933 69.7027 117.935 69.7401C118.012 70.5743 118.267 71.3824 118.683 72.1098C119.099 72.8371 119.666 73.4667 120.346 73.9562C122.005 75.4502 122.848 76.6234 122.757 80.0787C122.449 80.2385 122.111 80.3317 121.766 80.3522C121.42 80.3728 121.073 80.3202 120.749 80.1979C121.134 76.5317 118.604 73.8462 118.375 74.6986C117.413 78.264 119.613 79.4005 120.373 82.7459C119.872 83.2332 119.231 83.5533 118.54 83.6624C118.142 81.771 117.393 79.971 116.331 78.3556C116.314 78.3143 116.284 78.279 116.247 78.2543C116.209 78.2295 116.165 78.2163 116.121 78.2163C116.076 78.2163 116.032 78.2295 115.994 78.2543C115.957 78.279 115.927 78.3143 115.91 78.3556C114.828 82.1501 116.396 82.7459 117.624 86.2288C117.171 86.623 116.669 86.9559 116.13 87.2187C115.378 85.0831 113.206 82.8101 113.49 84.0566C113.809 85.5682 114.03 87.099 114.15 88.6393C113.62 88.8946 113.049 89.0558 112.463 89.1159C112.571 87.8117 112.211 86.5118 111.446 85.4497C111.427 85.416 111.398 85.388 111.365 85.3687C111.331 85.3494 111.292 85.3394 111.254 85.3397C110.768 85.3397 111.345 86.1646 110.108 88.6668C109.543 88.7928 108.96 88.8238 108.385 88.7585C110.434 85.5812 111.893 82.0603 112.693 78.3648C113.994 71.9031 112.427 69.1168 109.026 66.4496C110.3 66.468 111.822 66.2663 112.225 65.5148ZM121.437 74.0937C120.373 73.0213 119.145 72.2606 118.513 70.1342C119.295 70.4928 119.974 71.0442 120.486 71.7367C120.997 72.4293 121.324 73.2402 121.437 74.0937ZM120.126 80.2437C119.274 78.5023 118.439 77.5857 118.751 75.3035C119.789 76.7311 120.277 78.4852 120.126 80.2437ZM85.5345 54.9928C85.6542 54.4417 85.9023 53.9267 86.2586 53.4896C87.2853 53.6856 88.2594 54.0947 89.1183 54.6903C88.825 55.451 88.5042 56.2484 88.2017 57.0825C87.5886 56.0917 86.6433 55.351 85.5345 54.9928ZM36.8095 169.974C36.5895 170.936 36.9928 172.128 36.9745 173.008C36.9195 174.988 29.4311 174.887 27.3779 174.355C26.9471 174.236 26.5438 174.135 26.2597 173.099C26.1131 172.568 26.0397 172.183 25.9756 171.816C25.5631 169.562 25.6089 171.981 17.0848 169.213C16.7281 169.07 16.3559 168.968 15.9758 168.911C15.924 168.907 15.8728 168.923 15.8311 168.953C15.7894 168.984 15.7599 169.029 15.7479 169.079C15.7358 169.13 15.742 169.183 15.7652 169.229C15.7885 169.275 15.8273 169.312 15.8749 169.332C16.871 169.813 17.9158 170.184 18.9913 170.441C18.8813 173.09 19.1104 173.136 18.8171 173.191C17.0064 173.748 15.0874 173.855 13.226 173.503C10.5313 172.989 9.60558 172.714 10.1739 166.629C10.2655 165.657 3.85866 161.817 5.82929 150.369C7.48829 140.809 15.6733 135.649 27.2038 136.896C26.3795 139.767 26.5507 142.832 27.6896 145.594C27.7078 145.652 27.7485 145.701 27.8026 145.729C27.8568 145.758 27.9199 145.763 27.9783 145.745C28.0366 145.727 28.0853 145.686 28.1137 145.632C28.1421 145.578 28.1478 145.515 28.1295 145.456C25.3065 135.75 31.1634 129.554 37.4602 139.215C37.5043 139.28 37.5686 139.328 37.6432 139.353C37.7177 139.378 37.7984 139.378 37.8727 139.352C46.2777 136.602 47.5884 144.1 51.0164 146.208C48.4683 147.335 47.4326 152.019 47.2492 154.457C46.9468 158.288 48.2391 164.603 51.603 163.512C45.2694 170.561 37.2861 167.958 36.8095 169.974ZM47.4967 135.457C46.2863 136.333 45.382 137.567 44.912 138.985C43.596 138.231 42.0759 137.911 40.5674 138.069C46.4976 131.891 51.383 133.44 48.0192 141.808C47.3397 140.935 46.5477 140.155 45.6636 139.49C45.9744 138.08 46.7103 136.801 47.7717 135.823C47.8203 135.787 47.8524 135.733 47.861 135.672C47.8696 135.612 47.854 135.551 47.8175 135.503C47.781 135.454 47.7268 135.422 47.6666 135.413C47.6064 135.405 47.5453 135.42 47.4967 135.457ZM53.9127 159.782C53.5158 160.887 52.7936 161.845 51.8413 162.532C48.8807 164.209 47.8175 157.848 48.0833 154.466C48.285 151.918 49.5315 146.684 52.0521 146.684C54.921 146.712 56.1033 154.613 53.9311 159.782H53.9127ZM82.9039 149.214C82.8835 149.188 82.8581 149.167 82.8293 149.151C82.8005 149.134 82.7688 149.124 82.736 149.12C82.7033 149.117 82.6701 149.119 82.6383 149.128C82.6066 149.137 82.5769 149.152 82.5511 149.173C82.5252 149.193 82.5036 149.219 82.4875 149.247C82.4714 149.276 82.4612 149.308 82.4574 149.341C82.4535 149.374 82.4562 149.407 82.4652 149.438C82.4742 149.47 82.4893 149.5 82.5098 149.526C83.285 150.533 83.9031 151.651 84.343 152.844C84.5446 153.467 84.6271 154.2 84.4255 154.338C84.2238 154.475 83.5914 154.118 83.0873 153.696C81.7949 152.615 81.2541 151.533 80.9791 151.716C80.8416 151.79 80.8966 151.964 80.9791 152.11C81.3458 152.789 82.6656 155.593 81.9507 155.676C81.2358 155.758 79.8151 153.751 79.3568 153.009C79.1643 152.688 78.9718 152.33 78.651 152.569C71.5659 157.674 62.1527 159.058 54.7376 159.663C56.2958 155.612 56.085 149.883 54.261 147.28C54.0292 146.884 53.6989 146.554 53.3023 146.323C52.9057 146.092 52.4561 145.967 51.9971 145.96C50.6864 145.502 49.449 143.614 48.4408 142.294C50.2739 137.876 50.2739 134.962 48.3216 133.917H48.2666C45.3244 132.615 41.7681 135.411 39.5959 138.216C39.0474 138.325 38.5057 138.466 37.9735 138.637C37.7169 138.216 37.4419 137.803 37.1761 137.418C38.0297 133.405 39.1255 129.448 40.4574 125.567C45.3519 125.201 64.1234 130.581 69.3478 133.871C69.3643 133.882 69.3829 133.89 69.4025 133.893C69.4221 133.896 69.4421 133.895 69.4613 133.89C69.4805 133.885 69.4983 133.875 69.5135 133.863C69.5287 133.85 69.541 133.834 69.5495 133.816C74.1323 124.018 73.8849 116.567 70.1636 107.236C69.5586 105.705 70.8693 105.935 71.3093 106.815C78.1378 120.654 72.07 136.602 67.8446 143.22C63.2618 139.691 60.0904 137.171 54.3985 136.511C54.3252 136.499 54.2502 136.517 54.1898 136.56C54.1293 136.603 54.088 136.668 54.0748 136.741C54.0617 136.814 54.0776 136.889 54.1193 136.951C54.1609 137.012 54.2249 137.055 54.2977 137.07C63.7567 139.205 67.1297 145.218 75.2597 149.214C75.3399 149.253 75.4316 149.262 75.5177 149.238C75.6037 149.215 75.6782 149.16 75.7272 149.086C77.8353 145.795 80.7775 144.091 83.8572 144.356C83.5811 144.516 83.3307 144.717 83.1148 144.952C82.6198 145.484 82.8948 145.814 83.2981 146.529C83.2561 146.571 83.2326 146.629 83.2326 146.689C83.2326 146.749 83.2561 146.807 83.2981 146.849C87.0193 149.645 88.2934 155.126 82.9039 149.214ZM107.871 170.478C106.13 170.478 87.2668 170.368 83.7105 170.093C83.2973 169.592 82.988 169.014 82.8007 168.393C82.6134 167.771 82.5519 167.118 82.6198 166.473C91.2898 167.207 100.001 167.318 108.687 166.803C108.828 167.438 108.829 168.096 108.688 168.731C108.547 169.366 108.268 169.962 107.871 170.478ZM93.4904 161.523V161.468C94.1956 161.505 94.9024 161.505 95.6076 161.468C96.1118 161.413 95.8735 160.753 95.8276 160.249H96.625C96.625 160.781 96.3501 161.496 96.9 161.56C97.9298 161.67 98.9683 161.67 99.998 161.56C100.539 161.505 100.236 160.772 100.218 160.259H101.199C101.199 160.689 100.924 161.413 101.483 161.487C102.372 161.592 103.27 161.592 104.159 161.487C104.425 161.487 104.48 161.258 104.471 161.028C104.471 161.028 104.471 160.708 104.416 160.396C105.003 160.365 105.591 160.43 106.157 160.589C106.304 160.799 108.146 165.116 108.559 166.271C102.344 166.271 87.6793 166.042 82.684 165.941C82.9039 164.86 84.398 160.304 84.8196 160.13H87.4318C87.4498 160.135 87.4688 160.135 87.4868 160.13C87.4868 160.451 87.4868 160.744 87.4318 160.79C87.4318 161.093 87.4318 161.34 87.7893 161.377C89.1505 161.465 90.516 161.465 91.8772 161.377C92.363 161.606 92.5738 161.688 92.6471 161.716C93.0412 161.927 93.3254 161.844 93.4904 161.523ZM92.8579 158.416C93.0162 159.326 93.0162 160.256 92.8579 161.166C92.3263 160.955 90.7406 160.103 90.6398 160.057C90.539 160.011 90.209 159.278 86.8085 152.358C86.9142 152.261 86.9988 152.144 87.0572 152.013C87.1155 151.882 87.1463 151.74 87.1477 151.597C87.2118 150.506 86.1761 148.527 84.0772 146.822C83.4356 145.475 82.8581 145.346 84.6271 144.641C85.6995 144.21 85.6903 144.503 85.9011 144.888C87.7068 148.105 90.1449 152.532 92.8396 158.416H92.8579ZM88.1101 147.564L86.7627 145.09C89.2466 145.759 90.7315 146.703 90.9148 147.317C91.0981 147.931 88.9075 147.628 88.1101 147.564ZM150.831 151.423C131.711 150.03 113.142 147.262 106.762 146.08C116.441 137.711 130.3 126.887 137.009 120.022C151.344 123.312 165.936 125.173 178.136 125.255C176.899 128.445 164.983 141.148 160.235 145.997C158.879 145.319 156.101 146.125 156.395 147.573C154.91 147.518 154.406 148.032 154.232 148.353C154.148 148.506 154.105 148.678 154.105 148.852C154.105 149.027 154.148 149.198 154.232 149.352C153.37 149.352 152.563 149.627 152.545 150.47C151.39 150.076 150.767 150.644 150.831 151.377V151.423ZM151.564 151.698C151.161 150.91 151.867 150.836 152.719 151.185C153.103 151.768 153.666 152.212 154.323 152.45C154.094 153.467 152.151 152.862 151.564 151.652V151.698ZM156.67 151.936C155.9 152.56 153.003 151.368 153.214 150.451C153.26 150.167 153.7 149.911 154.772 150.021C155.429 150.492 156.184 150.805 156.981 150.937C157 151.109 156.982 151.283 156.928 151.447C156.874 151.612 156.786 151.763 156.67 151.89V151.936ZM158.943 149.755C158.796 150.231 158.329 150.396 157.476 150.268C154.727 149.847 153.581 148.114 156.835 148.307C157.374 148.669 158.02 148.837 158.668 148.783C158.795 148.897 158.889 149.043 158.937 149.207C158.986 149.371 158.988 149.544 158.943 149.709V149.755ZM157.238 147.738C156.321 146.822 159.594 146.052 160.125 146.822C160.183 146.931 160.213 147.052 160.213 147.175C160.213 147.298 160.183 147.419 160.125 147.528C159.749 148.27 157.751 148.215 157.238 147.693V147.738Z" fill="white" style="fill:white;fill-opacity:1;"/>
</svg>
