<svg width="238" height="154" viewBox="0 0 238 154" fill="none" xmlns="http://www.w3.org/2000/svg">
<path d="M180.73 61.8624C181.808 62.394 182.99 62.6841 184.192 62.7124C184.26 62.7047 184.325 62.6837 184.384 62.6505C184.444 62.6173 184.496 62.5726 184.538 62.5191C184.579 62.4656 184.61 62.4043 184.628 62.3388C184.646 62.2733 184.651 62.2048 184.642 62.1374C184.542 61.3499 183.655 62.0249 181.192 60.8874L181.317 59.9624C181.38 59.6999 181.067 59.2749 180.73 59.3999C180.392 59.5249 180.305 59.9249 180.205 60.6499C180.105 61.3749 180.055 61.5249 180.73 61.8624ZM50.2513 65.4124C51.7555 65.0035 53.1681 64.312 54.4139 63.3749C54.9014 62.9999 54.7389 62.1249 54.6014 61.6249C54.5622 61.4952 54.4766 61.3845 54.3608 61.3141C54.2451 61.2436 54.1074 61.2184 53.9742 61.2432C53.841 61.2679 53.7217 61.341 53.639 61.4484C53.5564 61.5557 53.5162 61.6898 53.5264 61.8249C53.5501 62.0959 53.6003 62.3638 53.6764 62.6249C50.7138 64.7874 49.5638 64.2499 49.7388 65.1249C49.7776 65.2248 49.85 65.3081 49.9435 65.3605C50.037 65.413 50.1458 65.4313 50.2513 65.4124ZM46.8512 63.0999C49.3512 63.0999 48.5012 61.6249 47.8262 61.8499L46.8637 61.9999C46.0387 58.0874 46.7012 57.2624 45.9887 57.2374C45.8812 57.2305 45.7753 57.2658 45.6936 57.3359C45.6118 57.406 45.5607 57.5052 45.5512 57.6124C45.4629 59.1581 45.5763 60.7086 45.8887 62.2249C46.0262 62.8999 46.2762 63.0999 46.8512 63.0999ZM119.441 60.9499C120.153 60.9499 123.903 60.1374 124.541 60.0374C125.478 59.8749 126.591 59.5874 126.666 58.5749C126.666 57.9499 126.216 57.2249 125.703 57.5999C125.597 57.6748 125.518 57.7829 125.479 57.9074C125.441 58.0318 125.445 58.1655 125.491 58.2874C125.678 58.7749 125.278 58.7374 119.241 60.0499C119.13 60.0843 119.036 60.1591 118.977 60.2595C118.919 60.36 118.9 60.4787 118.926 60.5921C118.951 60.7055 119.018 60.8053 119.113 60.8716C119.209 60.9379 119.325 60.9659 119.441 60.9499ZM37.2259 30.35C37.5009 30.6625 38.176 30.35 37.976 29.875C36.7259 26.825 34.4259 23.425 32.9758 20.075C32.7508 19.5375 32.3008 18.625 31.8633 18.575C31.8085 18.5673 31.7527 18.5749 31.7019 18.5969C31.6512 18.619 31.6075 18.6546 31.5758 18.7C31.3008 19.075 31.7008 20.1125 31.8883 20.55C32.4633 21.7875 35.2509 28.0875 37.2259 30.35ZM77.752 25.075C77.7754 25.1725 77.824 25.2623 77.8928 25.3353C77.9617 25.4083 78.0485 25.462 78.1445 25.4911C78.2406 25.5202 78.3426 25.5236 78.4404 25.501C78.5382 25.4785 78.6284 25.4307 78.702 25.3625C79.734 24.4227 80.6719 23.3845 81.5021 22.2625C85.2522 34.2625 85.2522 34.6875 85.8397 34.6875C85.9239 34.6851 86.0066 34.6647 86.0823 34.6275C86.1579 34.5904 86.2246 34.5374 86.278 34.4722C86.3314 34.407 86.3701 34.3311 86.3915 34.2496C86.4129 34.1681 86.4166 34.083 86.4022 34C85.0022 29.5749 83.5271 25.25 82.2521 20.8375C82.2235 20.7278 82.1632 20.629 82.0786 20.5535C81.9941 20.478 81.8892 20.4292 81.777 20.4132C81.6648 20.3972 81.5503 20.4147 81.4481 20.4635C81.3458 20.5122 81.2602 20.5902 81.2021 20.6875C80.4842 21.8165 79.646 22.8643 78.702 23.8125C77.952 20.3875 76.2019 12.5625 76.2019 12.5625C76.1704 12.4365 76.0902 12.3282 75.9788 12.2614C75.8675 12.1946 75.7342 12.1747 75.6082 12.2062C75.4822 12.2377 75.3739 12.318 75.3071 12.4293C75.2402 12.5406 75.2204 12.674 75.2519 12.8C75.6769 14.7375 77.4895 24.2125 77.752 25.075ZM12.6378 90.0999C8.6127 88.1749 5.02511 86.1999 0.900005 84.0249C0.0999847 83.5999 -0.450029 85.0624 0.800003 85.3999C4.40154 87.6479 8.24191 89.4884 12.2503 90.8874C12.7503 91.0249 13.1003 90.3749 12.6378 90.0999ZM15.8379 61.2374C15.9238 61.3135 16.0309 61.3614 16.1449 61.3748C16.2588 61.3882 16.3742 61.3664 16.4754 61.3124C17.3004 60.9124 16.2379 59.9249 16.6379 53.9874C26.7757 66.2249 26.2132 65.9124 26.6382 65.9124C26.7262 65.9179 26.8139 65.8982 26.891 65.8554C26.9682 65.8127 27.0315 65.7488 27.0735 65.6713C27.1156 65.5938 27.1346 65.5059 27.1283 65.418C27.122 65.33 27.0908 65.2457 27.0382 65.1749C25.4506 63.1749 18.5005 54.5374 16.6504 52.1874C16.5808 52.0993 16.4875 52.0329 16.3813 51.9962C16.2752 51.9595 16.1608 51.954 16.0516 51.9803C15.9424 52.0066 15.8431 52.0636 15.7653 52.1446C15.6876 52.2257 15.6347 52.3273 15.6129 52.4374C15.3588 54.7203 15.3169 57.0218 15.4879 59.3124C11.7378 55.9499 8.15019 52.3874 4.36259 49.1124C4.24793 49.0204 4.10449 48.9718 3.95751 48.975C3.81052 48.9783 3.66939 49.0333 3.55893 49.1303C3.44847 49.2273 3.37575 49.3602 3.35355 49.5055C3.33136 49.6509 3.36111 49.7994 3.43757 49.9249C4.91261 52.2124 13.2378 58.8749 15.8379 61.2374ZM114.44 14.875C114.44 14.9976 114.489 15.1153 114.576 15.202C114.663 15.2887 114.78 15.3375 114.903 15.3375C115.026 15.3375 115.143 15.2887 115.23 15.202C115.317 15.1153 115.365 14.9976 115.365 14.875C115.58 10.2836 115.387 5.68236 114.79 1.12496C114.778 1.00471 114.73 0.890776 114.654 0.796969C114.577 0.703161 114.476 0.633508 114.36 0.596459C114.245 0.559409 114.122 0.556555 114.005 0.588238C113.888 0.619921 113.783 0.684782 113.703 0.774958C113.14 1.49996 114.49 3.78746 114.44 14.875ZM148.266 36.5874C157.779 20.5375 157.267 21.3375 157.191 21.05C156.979 20.325 156.379 20.675 151.566 22.125C152.816 17.6875 154.379 12.95 155.416 8.46245C155.438 8.31735 155.404 8.16943 155.322 8.04779C155.241 7.92614 155.116 7.83957 154.973 7.8051C154.831 7.77062 154.68 7.79074 154.552 7.8615C154.423 7.93226 154.326 8.04853 154.279 8.18746C152.866 13.1875 151.466 18.075 150.116 22.875C150.094 22.9742 150.098 23.0773 150.127 23.1747C150.156 23.2721 150.209 23.3605 150.282 23.4317C150.354 23.5029 150.444 23.5546 150.541 23.5818C150.639 23.609 150.743 23.611 150.841 23.5875C150.841 23.5875 154.154 22.5625 155.491 22.125L147.504 36.1625C147.457 36.2627 147.449 36.3772 147.483 36.4827C147.517 36.5882 147.59 36.677 147.687 36.7309C147.783 36.7849 147.897 36.8001 148.005 36.7735C148.112 36.7468 148.206 36.6803 148.266 36.5874ZM237.644 73.2499C236.994 72.9374 224.968 80.4124 224.843 80.4999C224.406 80.8124 224.843 81.5874 225.293 81.3499C226.018 81.0249 237.506 74.6374 237.894 73.9499C237.923 73.8876 237.94 73.82 237.944 73.751C237.947 73.6821 237.937 73.6131 237.914 73.5481C237.891 73.4831 237.855 73.4233 237.808 73.3721C237.762 73.3209 237.706 73.2794 237.644 73.2499ZM205.818 58.9624C205.818 58.9624 217.868 49.7749 220.118 48.0249C220.606 47.6374 220.118 46.7749 219.543 46.8374C217.275 46.8915 215.016 47.1467 212.793 47.5999C216.02 44.1578 218.877 40.3872 221.318 36.35C221.731 35.675 220.731 34.975 220.331 35.6625C217.577 40.1548 214.299 44.3046 210.568 48.0249C210.168 48.4124 210.418 49.3624 211.068 49.2749C213.274 48.7131 215.524 48.3368 217.793 48.1499C217.793 48.1499 208.243 55.8374 205.293 58.2749C205.243 58.3547 205.219 58.4476 205.223 58.5414C205.228 58.6352 205.261 58.7253 205.318 58.8C205.375 58.8746 205.453 58.9301 205.542 58.9591C205.632 58.9881 205.728 58.9893 205.818 58.9624ZM188.58 22.775C196.255 9.54995 197.593 7.62496 196.305 7.29996C195.755 7.16246 195.78 7.21246 187.717 22.3C187.679 22.4112 187.682 22.5321 187.724 22.6417C187.767 22.7512 187.847 22.8423 187.949 22.899C188.052 22.9556 188.172 22.9743 188.287 22.9516C188.402 22.9289 188.506 22.8664 188.58 22.775Z" fill="white" style="fill:white;fill-opacity:1;"/>
<path d="M224.006 104.363C218.906 88.2752 206.018 75.9002 188.617 70.4252C188.606 70.1067 188.572 69.7893 188.517 69.4752C193.268 67.4002 194.33 60.2627 193.28 54.0502C194.193 52.5627 196.618 44.9127 194.83 45.9627L191.568 47.8877C191.105 46.6377 190.568 45.4752 189.992 44.3252C190.117 42.3252 188.292 38.7502 185.08 36.4127C182.13 34.2627 177.055 32.3377 169.654 35.4127C163.879 37.8127 157.367 43.1127 156.379 50.8127C155.129 60.8127 158.442 65.6627 152.254 74.9502C145.417 71.8545 138.129 69.8712 130.666 69.0752C130.666 68.515 130.629 67.9554 130.553 67.4002C133.741 65.7877 134.416 60.5377 134.554 58.8252C138.304 55.5752 138.741 49.1002 135.804 48.9502C136.559 44.3115 136.847 39.6089 136.666 34.9127C136.504 32.0002 135.254 31.3502 134.679 31.2252C134.273 31.1485 133.854 31.1875 133.469 31.3378C133.084 31.4881 132.75 31.7437 132.504 32.0752C131.566 30.1627 129.766 30.4002 128.753 31.8502C128.654 31.3356 128.395 30.8652 128.014 30.5056C127.633 30.146 127.148 29.9153 126.628 29.8462C126.109 29.7771 125.581 29.8731 125.118 30.1206C124.656 30.368 124.284 30.7545 124.053 31.2252C123.811 30.7092 123.421 30.2768 122.932 29.9831C122.443 29.6894 121.878 29.5476 121.309 29.5758C120.74 29.6039 120.191 29.8007 119.734 30.1411C119.277 30.4816 118.931 30.9503 118.741 31.4877C117.491 28.7752 114.303 29.4002 113.591 32.1502C112.653 30.0377 110.09 30.0502 109.203 32.5002C106.865 30.7752 105.028 32.5002 104.653 35.3377C104.426 40.1627 104.626 44.9982 105.253 49.7877C101.015 48.8377 104.315 58.7627 106.84 59.0002C107.278 62.7502 108.828 66.8752 111.84 67.8752C111.84 68.3752 111.765 68.8877 111.765 69.3877C103.683 70.6784 95.905 73.4363 88.8149 77.5252C84.9148 74.7752 76.2396 71.0377 67.9018 71.7252C66.3911 68.5335 65.2544 65.1779 64.5143 61.7252C63.9642 58.7127 65.3768 57.5252 65.3643 54.9252C66.9827 51.6637 67.386 47.9322 66.5018 44.4002C62.5642 31.9002 38.7761 36.6502 39.4511 50.3752C39.5386 51.9377 39.6761 53.5002 39.8136 54.7127C36.8761 55.6002 37.3136 55.8127 38.1261 59.3877C38.5636 61.3377 39.0636 62.9502 41.1137 62.5252C42.0512 66.5877 44.4137 73.0752 49.9889 73.0752C50.3264 73.0752 49.9889 72.8627 50.3014 74.9627C36.3135 81.0502 18.7506 92.4627 14.2005 112.463C13.1004 117.288 12.4379 124.138 15.588 129.313C19.0506 135.075 25.1757 135.438 29.5759 135.15C28.5459 140.809 28.2143 146.573 28.5883 152.313C28.5906 152.393 28.6149 152.471 28.6585 152.538C28.7021 152.606 28.7634 152.66 28.8357 152.694C28.9079 152.729 28.9884 152.744 29.0682 152.736C29.148 152.728 29.2242 152.698 29.2884 152.65C29.9634 152.25 28.6383 151.825 30.7509 135.063C42.5262 133.975 53.7515 128.913 64.1268 123.588C65.8393 124.838 67.5393 126.088 69.3019 127.213C70.751 130.143 72.9716 132.622 75.7248 134.384C78.4781 136.146 81.6597 137.124 84.9273 137.213C84.6148 142.475 84.6148 147.751 84.9273 153.013C84.9319 153.076 84.9494 153.138 84.9785 153.195C85.0077 153.252 85.0479 153.302 85.0969 153.343C85.1459 153.384 85.2027 153.414 85.2637 153.433C85.3248 153.451 85.3889 153.457 85.4523 153.45C86.5273 153.35 85.1398 152.813 85.9898 137.2C96.3901 137.2 104.928 130.413 113.491 125.225C123.566 129.838 148.266 138.425 161.329 135.95C161.929 141.275 161.842 146.325 162.354 151.475C162.371 151.568 162.419 151.651 162.491 151.712C162.563 151.772 162.654 151.805 162.748 151.805C162.842 151.805 162.933 151.772 163.005 151.712C163.077 151.651 163.125 151.568 163.142 151.475C163.47 146.213 163.256 140.931 162.504 135.713C171.567 133.563 177.13 127.175 178.605 117.25C179.205 116.85 179.855 116.4 180.53 115.888C188.267 118.975 204.28 126.488 212.106 126.763C211.743 132.575 211.231 138.713 211.143 144.738C211.16 144.84 211.213 144.932 211.292 144.998C211.371 145.065 211.471 145.102 211.574 145.102C211.678 145.102 211.777 145.065 211.856 144.998C211.935 144.932 211.988 144.84 212.006 144.738C212.181 143.075 213.318 128.888 213.256 126.725C225.781 126.438 227.756 116.188 224.006 104.363ZM134.804 50.9377C135.141 50.4877 135.329 49.9627 135.816 50.1127C137.566 50.6252 136.166 54.9752 134.704 56.9127C134.829 54.9252 134.866 52.9127 134.804 50.9377ZM104.965 50.9377C105.365 50.9377 105.315 51.1127 106.215 51.2877L106.715 57.4627C104.865 55.7502 103.528 50.9627 104.965 50.9627V50.9377ZM191.818 49.6877C191.871 49.512 191.991 49.3646 192.153 49.2778C192.315 49.1911 192.504 49.1722 192.68 49.2252C192.856 49.2783 193.003 49.3989 193.09 49.5607C193.177 49.7224 193.196 49.912 193.143 50.0877C192.705 51.6377 192.368 52.7627 192.08 53.8377C192.006 53.9715 191.902 54.0863 191.776 54.173C191.651 54.2598 191.506 54.3162 191.355 54.3377C190.255 54.3752 191.43 50.8127 191.818 49.6627V49.6877ZM170.779 54.6877C171.492 54.1502 172.355 54.8377 172.492 54.8502C173.667 55.6002 174.992 54.5127 174.655 54.2002L174.405 54.0002C173.48 53.2752 171.58 51.7752 171.98 50.7502C172.28 49.9752 173.505 50.0877 174.305 50.0502C174.333 50.0494 174.361 50.0421 174.386 50.0289C174.411 50.0157 174.433 49.9969 174.45 49.974C174.467 49.9512 174.478 49.9247 174.483 49.8968C174.488 49.8689 174.487 49.8401 174.48 49.8127C174.355 49.4127 174.205 49.0127 174.055 48.5627C178.779 46.2198 183.958 44.9398 189.23 44.8127C189.767 46.0627 190.23 47.2502 190.643 48.4252C189.08 49.3127 187.305 50.2877 186.892 52.0627C186.521 52.0166 186.144 52.0544 185.789 52.1734C185.434 52.2924 185.111 52.4895 184.842 52.7502C182.88 50.3877 174.755 50.5877 173.117 50.6502C171.005 50.7377 176.58 55.0002 178.117 56.2002C183.28 60.2127 186.655 57.4502 185.367 53.7877C185.548 53.5664 185.785 53.3983 186.054 53.3014C186.322 53.2046 186.612 53.1825 186.892 53.2377C186.939 53.4752 187.015 53.7061 187.117 53.9252C187.055 53.8944 186.987 53.8783 186.917 53.8783C186.848 53.8783 186.78 53.8944 186.717 53.9252C186.205 54.2502 186.717 54.6877 187.892 56.7752C187.747 56.9226 187.593 57.0604 187.43 57.1877C186.955 57.5377 187.367 59.0627 188.955 57.1877C189.192 56.9002 188.742 56.0627 188.242 55.3252C188.846 55.7365 189.569 55.9352 190.298 55.8899C191.027 55.8446 191.72 55.558 192.268 55.0752C192.814 58.4312 192.504 61.8708 191.368 65.0752C190.118 68.1377 186.98 68.3127 187.617 69.4752C187.782 73.5964 187.447 77.7224 186.617 81.7627C183.405 81.0627 177.08 73.2252 174.555 69.5877C174.816 66.5483 174.424 63.4881 173.405 60.6127C172.567 59.1627 170.904 58.5002 170.467 56.8627C170.296 56.4976 170.235 56.0908 170.29 55.6915C170.346 55.2922 170.516 54.9175 170.779 54.6127V54.6877ZM189.73 52.6002C189.592 53.0127 189.505 53.5877 189.055 53.5877C188.605 53.5877 188.38 53.0627 188.43 52.6127C188.48 52.1627 188.605 51.1252 189.08 50.8502C189.171 50.805 189.272 50.7815 189.374 50.7815C189.476 50.7815 189.576 50.805 189.667 50.8502C190.255 51.0127 189.943 51.8877 189.73 52.5252V52.6002ZM182.992 55.4752C182.855 55.8127 182.717 56.4252 182.317 56.6127C182.247 56.647 182.17 56.6648 182.092 56.6648C182.014 56.6648 181.937 56.647 181.867 56.6127C181.117 56.3377 181.942 53.5502 182.617 53.0127C182.676 52.9527 182.749 52.9086 182.83 52.8843C182.91 52.8601 182.996 52.8565 183.078 52.8739C183.16 52.8914 183.237 52.9293 183.3 52.9841C183.364 53.039 183.413 53.109 183.442 53.1877C183.705 53.7627 183.067 55.2127 182.992 55.4002V55.4752ZM180.255 54.2627C180.092 54.5877 180.017 54.8877 179.592 54.8877C179.492 54.8947 179.392 54.877 179.301 54.8362C179.209 54.7954 179.129 54.7328 179.067 54.6538C179.005 54.5748 178.964 54.4819 178.947 54.3832C178.929 54.2845 178.936 54.1831 178.967 54.0877C179.105 53.6752 179.255 52.7377 179.755 52.4877C179.834 52.4511 179.92 52.4312 180.007 52.4291C180.094 52.427 180.181 52.4429 180.262 52.4757C180.343 52.5085 180.416 52.5576 180.477 52.6198C180.538 52.6821 180.586 52.7563 180.617 52.8377C180.792 53.2502 180.505 53.8127 180.255 54.2627ZM174.005 70.2877C177.555 76.4127 186.905 85.2877 187.63 82.3127C188.448 78.7812 188.826 75.162 188.755 71.5377C205.88 77.5877 217.506 88.6752 222.568 103.638C218.904 101.889 214.877 101.032 210.818 101.138C210.643 97.0252 205.005 89.0752 202.843 86.6877C202.405 86.2002 201.593 86.8252 202.068 87.3127C205.31 90.9842 207.791 95.2627 209.368 99.9002C203.243 95.2877 190.905 88.8502 173.992 94.1502C169.604 86.6609 163.197 80.5574 155.504 76.5377C161.04 72.9173 167.407 70.7664 174.005 70.2877ZM108.815 42.0877C116.333 40.036 124.231 39.8089 131.853 41.4252C131.725 43.5435 131.792 45.6692 132.054 47.7752H131.828C130.791 43.0002 124.141 41.5252 121.903 46.5252C120.76 46.1376 119.521 46.1376 118.378 46.5252C116.216 42.0252 109.953 43.4752 108.803 47.9252H108.565C108.828 45.9912 108.912 44.0371 108.815 42.0877ZM125.816 52.3752C126.041 51.7377 128.066 47.0127 129.378 46.8752C129.488 46.8738 129.596 46.8985 129.693 46.9472C129.791 46.9959 129.876 47.0671 129.941 47.1551C130.006 47.2431 130.048 47.3452 130.066 47.4531C130.083 47.5609 130.075 47.6713 130.041 47.7752C128.925 49.3648 127.931 51.0362 127.066 52.7752C126.753 53.5502 125.528 53.2502 125.816 52.3752ZM124.003 50.6252C123.853 51.0002 123.178 51.2252 122.941 50.7877C122.703 50.3502 123.278 48.6877 124.903 46.2502C125.316 45.6377 125.703 45.3377 126.041 45.3877C126.151 45.4191 126.251 45.4769 126.334 45.556C126.416 45.6351 126.478 45.7332 126.513 45.8417C126.549 45.9502 126.558 46.0658 126.539 46.1784C126.519 46.291 126.473 46.3972 126.403 46.4877C125.452 47.7734 124.647 49.1611 124.003 50.6252ZM113.128 52.7002C113.666 51.5252 114.266 50.3377 114.841 49.1752C114.902 49.0631 114.992 48.9695 115.102 48.9044C115.212 48.8392 115.338 48.8048 115.466 48.8048C115.593 48.8048 115.719 48.8392 115.829 48.9044C115.939 48.9695 116.029 49.0631 116.091 49.1752C116.169 49.2939 116.211 49.433 116.211 49.5752C116.211 49.7175 116.169 49.8566 116.091 49.9752C115.541 51.0627 114.978 52.2002 114.378 53.3002C113.903 53.9252 112.753 53.4502 113.128 52.7002ZM111.615 51.1252L111.54 51.2127C111.153 51.7752 110.178 51.4127 110.44 50.7002C111.162 48.7797 112.084 46.9404 113.191 45.2127C113.728 44.5627 114.816 45.1252 114.441 45.8877C113.553 47.6627 112.465 49.3252 111.615 51.1252ZM107.153 51.2377C107.953 50.9002 108.178 49.9877 108.403 49.2002L108.665 49.1252C108.6 49.9924 108.706 50.864 108.979 51.6899C109.251 52.5158 109.684 53.2797 110.253 53.9377C110.927 54.5998 111.772 55.0616 112.693 55.2715C113.615 55.4814 114.576 55.4313 115.471 55.1267C116.365 54.822 117.157 54.2749 117.759 53.5462C118.361 52.8176 118.748 51.9362 118.878 51.0002C118.749 52.204 118.695 53.4147 118.716 54.6252C118.716 55.3752 118.541 56.3127 119.466 56.3752H120.716C121.366 56.3752 121.541 55.2502 120.791 55.2377H119.866C119.793 53.0106 119.914 50.7813 120.228 48.5752C120.316 47.9627 119.428 47.8752 119.303 48.4502C118.753 51.1377 119.303 49.6002 118.816 47.6127C119.688 47.2998 120.643 47.2998 121.516 47.6127C121.241 48.6149 121.186 49.6649 121.357 50.69C121.527 51.7152 121.918 52.6911 122.503 53.5502C122.949 54.1273 123.513 54.6019 124.158 54.9418C124.803 55.2818 125.513 55.4792 126.241 55.5207C126.969 55.5622 127.697 55.4468 128.376 55.1823C129.056 54.9178 129.67 54.5104 130.178 53.9877C131.407 52.6174 132.06 50.8269 132.004 48.9877H132.241C132.391 50.0752 132.616 51.5752 133.766 51.4877C133.641 55.7627 134.016 63.0877 130.628 65.7627C130.191 66.1127 129.691 66.5127 129.628 66.9127C129.472 68.2373 129.472 69.5757 129.628 70.9002C129.991 74.3627 123.928 81.2127 120.791 84.1377C114.741 75.9127 113.003 75.1002 113.016 67.8877C113.016 67.1627 112.928 67.0502 112.428 66.8002C107.365 64.3502 107.828 57.2877 107.153 51.2377ZM111.828 70.4877C111.965 74.3252 114.978 79.5127 120.291 85.1002C121.366 86.5002 130.866 74.8377 130.678 72.3127V70.2002C156.267 73.2127 174.605 87.9377 177.53 107.788C166.904 105.7 153.479 108.15 151.204 108.588C150.228 102.371 148.39 96.3211 145.741 90.6127C145.697 90.5017 145.61 90.4129 145.499 90.3661C145.389 90.3192 145.265 90.318 145.154 90.3627C145.043 90.4075 144.954 90.4945 144.907 90.6047C144.86 90.7149 144.859 90.8392 144.904 90.9502C147.202 96.5843 148.879 102.452 149.904 108.45C143.329 101.525 133.329 98.4502 119.391 99.0752C111.001 99.4641 102.668 100.649 94.5025 102.613C95.1557 98.8008 96.7115 95.2006 99.0402 92.1127C99.0912 92.0196 99.1066 91.9112 99.0836 91.8075C99.0606 91.7039 99.0006 91.6121 98.915 91.5494C98.8293 91.4867 98.7237 91.4573 98.618 91.4666C98.5122 91.476 98.4135 91.5235 98.3401 91.6002C95.7136 94.8456 93.9889 98.7259 93.34 102.85C84.277 105.024 75.4757 108.172 67.0893 112.238C68.2394 87.7502 90.8774 74.6252 111.828 70.4877ZM57.6141 47.3377C57.6013 48.5246 57.6723 49.7109 57.8266 50.8877C53.3265 51.0002 46.1763 52.7502 40.8512 54.4002C40.7136 53.3002 40.4011 51.3002 40.3886 50.1127C45.7468 47.5591 51.725 46.596 57.6141 47.3377ZM53.639 54.0502C51.1389 58.3002 51.6764 59.0502 50.8389 59.0502C50.7449 59.056 50.651 59.039 50.5649 59.0008C50.4788 58.9626 50.4032 58.9043 50.3444 58.8308C50.2856 58.7573 50.2453 58.6707 50.2269 58.5784C50.2086 58.4861 50.2127 58.3907 50.2389 58.3002C51.3764 54.0002 52.464 53.2002 53.014 53.1002C53.1339 53.0758 53.2583 53.0879 53.3713 53.1348C53.4843 53.1818 53.5806 53.2615 53.6479 53.3638C53.7152 53.466 53.7502 53.586 53.7487 53.7084C53.7471 53.8307 53.7089 53.9498 53.639 54.0502ZM49.7764 54.9877C49.3139 55.7502 49.2014 56.8127 48.5264 56.6502C47.8513 56.4877 48.3388 54.9627 48.7389 54.1502C49.1389 53.3377 49.4889 53.3252 49.7264 53.3877C49.8602 53.4241 49.9793 53.5016 50.0667 53.6092C50.1542 53.7169 50.2057 53.8493 50.2139 53.9877C50.1649 54.3555 50.0133 54.7021 49.7764 54.9877ZM40.4761 57.4877C40.3386 57.8127 40.3261 58.8127 39.6511 58.8127C39.5198 58.8178 39.3905 58.7787 39.284 58.7017C39.1775 58.6246 39.0999 58.5141 39.0636 58.3877C38.9975 57.5133 39.2756 56.6476 39.8386 55.9752C39.9547 55.8714 40.1007 55.8071 40.2557 55.7914C40.4106 55.7757 40.5666 55.8094 40.7012 55.8877C41.0012 56.0877 40.9387 56.6127 40.4761 57.4502V57.4877ZM40.9387 60.4002C42.0762 56.3127 42.7262 55.7127 43.1137 55.6252C43.1934 55.6069 43.2766 55.6112 43.3539 55.6377C43.4312 55.6642 43.4996 55.7118 43.5512 55.7752C43.7211 55.9722 43.8065 56.2282 43.7887 56.4877L42.1387 60.7502C42.0873 60.9094 41.9748 61.0416 41.8259 61.1177C41.6771 61.1939 41.5041 61.2079 41.3449 61.1565C41.1858 61.1051 41.0536 60.9926 40.9774 60.8437C40.9012 60.6949 40.8873 60.5219 40.9387 60.3627V60.4002ZM42.1887 62.2877C44.5887 61.5877 45.3638 61.7877 45.1013 58.1377C45.0138 57.1002 44.8138 54.7377 45.8638 54.7752C46.7138 54.7752 46.7388 58.7252 48.0013 59.9502C49.2639 61.1752 50.9014 60.3127 52.2764 59.9502C56.0265 58.9252 55.2015 57.3252 54.9265 52.3627L58.0766 52.1127C59.4891 59.4377 61.3892 53.9502 62.6642 53.1252C63.4767 52.6127 64.1768 53.7377 64.3268 54.6002C64.6143 56.4502 63.0767 58.4752 63.4017 61.1877C64.1384 65.1138 65.3997 68.9229 67.1518 72.5127C64.4143 77.7127 56.5516 82.5127 53.0515 84.4127C51.5764 79.0627 51.4514 72.0377 50.5514 72.0627C46.4013 72.0877 43.6762 68.9502 42.1387 62.2502L42.1887 62.2877ZM50.4139 76.1627C50.6389 78.0502 51.5639 86.1627 52.914 85.4877C56.3141 83.8877 66.6643 77.0877 68.1394 72.7127C70.3269 73.2127 77.1521 71.8877 87.7524 78.2752C79.9301 82.9475 73.6532 89.8153 69.7019 98.0252C59.5891 96.7752 47.0763 95.2127 36.5635 100.763C39.7761 93.1877 41.7012 92.4377 40.7887 91.8377C40.7414 91.8054 40.6881 91.783 40.632 91.7718C40.5759 91.7605 40.5181 91.7608 40.462 91.7725C40.406 91.7841 40.3529 91.807 40.3059 91.8397C40.2589 91.8724 40.219 91.9142 40.1886 91.9627C39.8636 92.4502 35.301 99.9877 35.1885 101.525C33.426 102.6 29.6634 105.35 28.5383 107.513C23.9428 107.602 19.4647 108.98 15.613 111.488C19.4131 96.7752 31.4259 84.5627 50.3639 76.1252L50.4139 76.1627ZM18.0006 130.75C13.2254 125.75 14.2505 117.388 15.238 112.8C27.4383 104.788 43.5637 108.213 63.1892 123C56.5891 125.825 27.7508 140.863 18.0006 130.75ZM29.8009 107.488C39.7261 96.5002 54.0765 97.2002 69.1894 99.0627C65.3143 108 64.9768 117.438 68.2144 125.138C56.9641 116.713 43.6762 107.45 29.8009 107.45V107.488ZM85.9023 136.238C73.5895 136.238 66.9768 125.425 67.1518 113.425C84.6523 105.563 99.9402 101.538 116.691 100.375C131.991 99.3127 142.291 102.1 149.041 109.125C116.066 116.513 102.453 136.2 85.9023 136.2V136.238ZM161.504 134.863C149.266 137.625 129.003 130.4 114.603 124.638C137.554 111.088 158.204 105.975 177.692 109.013C179.23 122.975 173.48 132.15 161.504 134.863ZM178.842 115.938C179.491 108.71 177.963 101.453 174.455 95.1002C187.88 91.6252 199.218 93.6502 209.068 101.275C196.13 102.238 183.092 112.338 178.83 115.938H178.842ZM212.843 125.65C205.193 125.65 189.092 118.15 181.68 115.125C189.605 109.125 198.993 102.763 210.293 102.313C214.708 102.04 219.11 103.006 223.006 105.1C226.356 116.4 224.681 125.575 212.831 125.65H212.843Z" fill="white" style="fill:white;fill-opacity:1;"/>
</svg>
