<svg width="70" height="70" viewBox="0 0 70 70" fill="none" xmlns="http://www.w3.org/2000/svg">
<rect width="70" height="70" rx="35" fill="#6764FF" style="fill:#6764FF;fill:color(display-p3 0.4036 0.3917 1.0000);fill-opacity:1;"/>
<g clip-path="url(#clip0_1_9202)">
<path fill-rule="evenodd" clip-rule="evenodd" d="M50.5123 23.8053C50.9693 24.2624 51.226 24.8823 51.226 25.5286C51.226 26.175 50.9693 26.7948 50.5123 27.2519L32.2424 45.5218C32.001 45.7633 31.7143 45.9549 31.3988 46.0856C31.0834 46.2163 30.7452 46.2835 30.4037 46.2835C30.0622 46.2835 29.7241 46.2163 29.4086 46.0856C29.0931 45.9549 28.8065 45.7633 28.565 45.5218L19.4878 36.4462C19.255 36.2213 19.0693 35.9524 18.9415 35.655C18.8138 35.3576 18.7466 35.0377 18.7437 34.7141C18.7409 34.3904 18.8026 34.0695 18.9252 33.7699C19.0477 33.4704 19.2287 33.1982 19.4576 32.9693C19.6864 32.7405 19.9586 32.5595 20.2582 32.4369C20.5577 32.3144 20.8787 32.2527 21.2023 32.2555C21.526 32.2583 21.8458 32.3256 22.1432 32.4533C22.4406 32.581 22.7096 32.7667 22.9344 32.9996L30.4029 40.4681L47.064 23.8053C47.2904 23.5788 47.5592 23.3991 47.855 23.2765C48.1509 23.1539 48.4679 23.0908 48.7882 23.0908C49.1084 23.0908 49.4255 23.1539 49.7213 23.2765C50.0172 23.3991 50.2859 23.5788 50.5123 23.8053Z" fill="white" style="fill:white;fill-opacity:1;"/>
</g>
<defs>
<clipPath id="clip0_1_9202">
<rect width="39" height="39" fill="white" style="fill:white;fill-opacity:1;" transform="translate(15.5 15.5)"/>
</clipPath>
</defs>
</svg>
